/* XPM */
static char *colec[] = {
/* columns rows colors chars-per-pixel */
"64 64 177 2 ",
"   c #000001",
".  c #04060A",
"X  c #05090E",
"o  c #090A0A",
"O  c #0B0705",
"+  c #140E08",
"@  c #16110A",
"#  c #050C12",
"$  c #080D13",
"%  c #061119",
"&  c #0B141B",
"*  c #131414",
"=  c #1E1E1D",
"-  c #281F0C",
";  c #21190E",
":  c #2B210C",
">  c #30250F",
",  c #382C11",
"<  c #312813",
"1  c #3B3117",
"2  c #091720",
"3  c #091821",
"4  c #0C202F",
"5  c #11232C",
"6  c #0E2535",
"7  c #0E293A",
"8  c #112C3D",
"9  c #112837",
"0  c #212224",
"q  c #2E292A",
"w  c #373737",
"e  c #403B3B",
"r  c #5F4D1F",
"t  c #684F0E",
"y  c #705A1E",
"u  c #6D571E",
"i  c #594E37",
"p  c #614E20",
"a  c #695622",
"s  c #112F41",
"d  c #153549",
"f  c #433F40",
"g  c #17445E",
"h  c #3E4143",
"j  c #1C4C67",
"k  c #1F526D",
"l  c #1D5473",
"z  c #4F5054",
"x  c #4C4B4B",
"c  c #565761",
"v  c #6F6E66",
"b  c #716E6D",
"n  c #747372",
"m  c #7C7C7B",
"M  c #7C7972",
"N  c #777369",
"B  c #9A7B25",
"V  c #82744F",
"C  c #9F8127",
"Z  c #AA882B",
"A  c #A3832B",
"S  c #B08D29",
"D  c #B4912E",
"F  c #A18330",
"G  c #C69F2E",
"H  c #C59F32",
"J  c #CBA32E",
"K  c #C6A02F",
"L  c #D4AA2F",
"P  c #C7A032",
"I  c #CDA633",
"U  c #D0A630",
"Y  c #DBB136",
"T  c #EABD33",
"R  c #E7BA33",
"E  c #EAB927",
"W  c #FCC51C",
"Q  c #FBC415",
"!  c #FCC724",
"~  c #FDC925",
"^  c #F9C72D",
"/  c #FDCA2D",
"(  c #F7C62E",
")  c #FFD32D",
"_  c #EEC033",
"`  c #F3C331",
"'  c #F8C731",
"]  c #FCCA31",
"[  c #FBCD3B",
"{  c #FFD332",
"}  c #FFDA34",
"|  c #FFD939",
" . c #FFE62D",
".. c #FFE434",
"X. c #FFE638",
"o. c #B39949",
"O. c #9B947C",
"+. c #A69974",
"@. c #E6BF48",
"#. c #FBCF43",
"$. c #F8CE4A",
"%. c #F9D14B",
"&. c #FBD354",
"*. c #FBD55A",
"=. c #FBD762",
"-. c #FCDD7D",
";. c #F8DB78",
":. c #FFE268",
">. c #256A8E",
",. c #246588",
"<. c #256D93",
"1. c #26739C",
"2. c #28749C",
"3. c #277096",
"4. c #3E7999",
"5. c #2977A0",
"6. c #427F9F",
"7. c #2F85B2",
"8. c #318EBE",
"9. c #308FC0",
"0. c #3292C3",
"q. c #3496C8",
"w. c #3399CD",
"e. c #359ED2",
"r. c #37A5DC",
"t. c #38A1D6",
"y. c #3AAAE3",
"u. c #3BAFE8",
"i. c #3CB2ED",
"p. c #3DB6F3",
"a. c #3FB8F5",
"s. c #3FBFFE",
"d. c #42BFFD",
"f. c #40BAF7",
"g. c #3FC0FF",
"h. c #41C3FF",
"j. c #43CAFF",
"k. c #46D2FF",
"l. c #48D6FF",
"z. c #989998",
"x. c #878888",
"c. c #A39E8B",
"v. c #A6A6A6",
"b. c #AAABAA",
"n. c #B6B9B9",
"m. c #DDCD96",
"M. c #F9DD81",
"N. c #EAD58B",
"B. c #FDE387",
"V. c #F9E49D",
"C. c #F8E398",
"Z. c #EEDDA0",
"A. c #FAE6A0",
"S. c #FAE8A6",
"D. c #FCEBB3",
"F. c #F7EBBD",
"G. c #F8ECBD",
"H. c #FFF3BB",
"J. c #CFCFD0",
"K. c #E0DEDB",
"L. c #F7ECC1",
"P. c #FBEEC3",
"I. c #FDF1C9",
"U. c #FCF1C4",
"Y. c #FCF3D4",
"T. c #FBF5DA",
"R. c #D7D9E0",
"E. c #EEEDEB",
"W. c #F0EFED",
"Q. c #FFFFE6",
"!. c #F4F5F5",
"~. c #F7F9FB",
"^. c #FDFFFF",
"/. c #FEFFFF",
"(. c #FFFFFF",
"). c #FDFDFD",
"_. c #FEFFFE",
/* pixels */
"d.s.s.s.s.s.s.s.s.s.s.s.s.s.s.s.s.s.s.s.s.s.s.s.s.s.s.s.s.s.s.s.s.s.s.s.s.s.s.s.s.s.s.s.s.s.s.s.s.s.s.s.s.s.s.s.s.s.s.s.s.s.s.s.",
"d.s.s.s.s.s.s.s.s.s.s.s.s.s.s.s.s.s.s.s.s.s.s.s.s.s.s.s.s.s.s.s.s.s.s.s.s.s.s.s.s.s.s.s.s.s.s.s.s.s.s.s.s.s.s.s.s.s.s.s.s.s.s.s.",
"d.s.s.s.s.s.s.s.s.s.s.s.s.s.s.s.s.s.s.s.s.s.s.s.s.s.s.s.s.s.s.s.s.s.s.s.s.s.s.s.s.s.s.s.s.s.s.s.s.s.s.s.s.s.s.s.s.s.s.s.s.s.s.s.",
"d.s.s.s.s.s.s.s.s.s.s.s.s.s.s.s.s.s.s.s.s.s.s.s.s.s.s.s.s.s.s.s.s.s.s.s.s.s.s.s.s.s.s.s.s.s.s.s.s.s.s.s.s.s.s.s.s.s.s.s.s.s.s.s.",
"d.s.s.s.s.s.s.s.s.s.s.s.s.s.s.s.s.s.s.s.s.s.s.s.s.s.s.s.s.s.s.s.s.s.s.s.s.s.s.s.s.s.s.s.s.s.s.s.s.s.s.s.s.s.s.s.s.s.s.s.s.s.s.s.",
"d.s.s.s.s.s.s.s.s.s.s.s.s.s.s.s.s.s.s.s.s.s.s.s.s.s.s.s.s.s.s.s.s.s.s.s.s.s.s.s.s.s.s.s.s.s.s.s.s.s.s.s.s.s.s.s.s.s.s.s.s.s.s.s.",
"d.s.s.s.s.s.s.s.s.s.s.s.s.s.s.s.s.s.s.s.s.s.s.s.s.s.s.s.s.s.s.s.s.s.s.s.s.s.s.s.s.s.s.s.s.s.s.s.s.s.s.s.s.s.s.s.s.s.s.s.s.s.s.s.",
"d.s.s.s.s.s.s.s.s.s.s.s.s.s.s.s.s.s.s.s.s.s.s.s.s.s.s.s.s.s.s.s.s.s.s.s.s.s.s.s.s.s.s.s.s.s.s.s.s.s.s.s.s.s.s.s.s.s.s.s.s.s.s.s.",
"d.s.s.s.s.s.s.s.s.s.s.s.s.s.s.s.s.s.s.s.s.s.s.s.s.s.s.s.s.s.s.s.s.s.s.s.s.s.s.s.s.s.s.s.s.s.s.s.s.s.s.s.s.s.s.s.s.s.s.s.s.s.s.s.",
"d.s.s.s.s.s.s.s.s.s.s.s.s.s.s.s.s.s.s.s.s.s.s.s.s.s.s.s.s.s.s.s.s.s.s.s.s.s.s.s.s.s.s.s.s.s.s.s.s.s.s.s.s.s.s.s.s.s.s.s.s.s.s.s.",
"d.s.s.s.s.s.s.s.s.s.s.s.s.s.s.s.s.s.s.s.s.s.s.s.s.s.s.s.s.s.s.s.s.s.s.s.s.s.s.s.s.s.s.s.s.s.s.s.s.s.s.s.s.s.s.s.s.s.s.s.s.s.s.s.",
"d.s.s.s.s.s.s.s.s.s.s.s.s.s.s.s.s.s.s.s.s.s.s.s.s.s.s.s.s.s.s.s.s.s.s.s.s.s.s.s.s.s.s.s.s.s.s.s.s.s.s.s.s.s.s.s.s.s.s.s.s.s.s.s.",
"d.s.s.s.s.s.s.s.s.s.s.s.s.s.s.s.s.s.s.s.s.s.s.s.s.s.s.s.s.s.s.s.s.s.s.s.s.s.s.s.s.s.s.s.s.s.s.s.s.s.s.s.s.s.s.s.s.s.s.s.s.s.s.s.",
"d.s.s.s.s.s.s.s.s.s.s.s.s.s.s.s.s.s.s.s.s.s.s.s.s.s.s.s.s.s.s.s.s.s.s.s.s.s.s.s.s.s.s.s.s.s.s.s.s.s.s.s.s.s.s.s.s.s.s.s.s.s.s.s.",
"d.s.s.s.s.s.s.s.s.s.s.s.s.s.s.s.s.s.s.s.s.s.s.j.j.j.j.j.j.j.j.j.j.j.j.j.j.s.s.s.s.s.s.s.s.s.s.s.s.s.s.s.s.s.s.s.s.s.s.s.s.s.s.s.",
"d.s.s.s.s.s.s.s.s.s.s.s.s.s.s.s.s.s.s.s.s.s.g.e.0.q.q.q.q.q.q.q.q.q.0.0.y.j.s.s.s.s.s.s.s.s.s.s.s.s.s.s.s.s.s.s.s.s.s.s.s.s.s.s.",
"d.s.s.s.s.s.s.s.s.s.s.s.s.s.s.s.s.s.s.s.s.s.j.7                         3.l.s.s.s.s.s.s.s.s.s.s.s.s.s.s.s.s.s.s.s.s.s.s.s.s.s.s.",
"d.s.s.s.s.s.s.s.s.s.s.s.s.s.s.s.s.s.s.s.s.s.j.8   * 5 = = = = = = = o   ,.f.i.g.s.s.s.s.s.s.s.s.s.s.s.s.s.s.s.s.s.s.s.s.s.s.s.s.",
"d.s.s.s.s.s.s.s.s.s.s.s.s.s.s.s.s.s.s.s.s.s.j.s   z.).!.!.!.!.!.!.).w   #   l j.s.s.s.s.s.s.s.s.s.s.s.s.s.s.s.s.s.s.s.s.s.s.s.s.",
"d.s.s.s.s.s.s.s.s.s.s.s.s.s.s.s.s.s.g.j.j.j.j.d   v.).).).).).).).).w       j j.d.j.j.s.s.s.s.s.s.s.s.s.s.s.s.s.s.s.s.s.s.s.s.s.",
"d.s.s.s.s.s.s.s.s.s.s.s.s.s.s.s.s.j.w.3 6 9 6 n.K.E.).G.%.&.&.&.&.*.1       % 6 6 6 8 u.j.s.s.s.s.s.s.s.s.s.s.s.s.s.s.s.s.s.s.s.",
"d.s.s.s.s.s.s.s.s.s.s.s.s.s.s.s.s.j.8.        J.).).).D.Q ! W W W ~ :                 y.j.s.s.s.s.s.s.s.s.s.s.s.s.s.s.s.s.s.s.s.",
"d.s.s.s.s.s.s.s.s.s.s.s.s.s.s.s.s.j.0.  * z.v.N.-.M.-.C.D.D.D.D.D.D.o.B C Z a       # y.j.s.s.s.s.s.s.s.s.s.s.s.s.s.s.s.s.s.s.s.",
"d.s.s.s.s.s.s.s.s.s.s.s.s.s.j.j.j.l.q.  o ).).&.Q ~ Q M.).).).).).).:.) { ..Z       X y.j.s.s.s.s.s.s.s.s.s.s.s.s.s.s.s.s.s.s.s.",
"d.s.s.s.s.s.s.s.s.s.s.s.s.j.9.>.3.1.6.n m !.).*.~ ] ~ *.S.A.A.A.A.A.$.^ ' ] K y p   X y.g.s.s.s.s.s.s.s.s.s.s.s.s.s.s.s.s.s.s.s.",
"d.s.s.s.s.s.s.s.s.s.s.s.s.j.g       e ).).).).*.~ ] ] ~ ! ! ! ! ! ! ~ ] ] ] ] ..Y   X i.j.g.s.s.s.s.s.s.s.s.s.s.s.s.s.s.s.s.s.s.",
"d.s.s.s.s.s.s.s.s.s.s.s.s.j.j   0 h N I.L.I.I.&.~ ] ] ] ] ] ] ] ] ] ] ] ] ] ' ~ K   . 7.q.i.j.s.s.s.s.s.s.s.s.s.s.s.s.s.s.s.s.s.",
"d.s.s.s.s.s.s.s.s.s.s.s.s.j.k   m ).U.^ ~ ~ ~ ~ ~ ~ ~ ] ] ] ~ ~ ~ ~ ~ ] ] ] ] { U         8.j.s.s.s.s.s.s.s.s.s.s.s.s.s.s.s.s.s.",
"d.s.s.s.s.s.s.s.s.s.s.s.p.d.j   n ).F.~ ] ] ~ [ $.] ~ ] ] ] ~ ~ T R ' ] ] ] ] { U         7.d.a.g.s.s.s.s.s.s.s.s.s.s.s.s.s.s.s.",
"d.s.s.s.s.s.s.s.s.s.s.j.d # $   n ).G.~ ] ] ] I.).;.~ ] ] ] ~ T - O K { ] ] ] { I         % . 1.j.s.s.s.s.s.s.s.s.s.s.s.s.s.s.s.",
"d.s.s.s.s.s.s.s.s.s.s.j.6       n ).L.~ ] ] ] Y.).M.~ ] ~ ] ] T +   G { ] ] ] { K             >.j.s.s.s.s.s.s.s.s.s.s.s.s.s.s.s.",
"d.s.s.s.s.s.s.s.s.s.s.j.8   x.R.m.*.&.~ ] ] ] Y.).T.T.C.~ ] ] T @   G { ~ ] ] ] ' K P ;       <.j.s.s.s.s.s.s.s.s.s.s.s.s.s.s.s.",
"d.s.s.s.s.s.s.s.s.s.s.j.8   b.).S.W ~ ] ] ] ] Y.).).).H.W ^ ~ T @   G { ] ] ] ] ] { { :       <.j.s.s.s.s.s.s.s.s.s.s.s.s.s.s.s.",
"d.s.s.s.s.s.s.s.s.s.s.j.8   v.).V.! ] ] ] ] ] Y.).z.x O.H.C.] T @   G { ] ] ] ] ] ~ ' -       <.j.s.s.s.s.s.s.s.s.s.s.s.s.s.s.s.",
"d.s.s.s.s.s.s.s.s.s.s.j.8   v.).C.! ] ] ] ~ ] Y.).z   c ).Q.~ E @   G { ~ ] ] ] ] ~ ] -       <.j.s.s.s.s.s.s.s.s.s.s.s.s.s.s.s.",
"d.s.s.s.s.s.s.s.s.s.s.j.8   v.).A.! ] ] ] ] ] Y.).+.t V z.c.B.N.@   K { ~ ] ] ] ] ~ ] -       <.j.s.s.s.s.s.s.s.s.s.s.s.s.s.s.s.",
"d.s.s.s.s.s.s.s.s.s.s.j.8   v.).C.W ~ ] ] ~ ] Y.).B. .A   0 ).~.*   G { ] ] ] ] ] ~ ] -       <.j.s.s.s.s.s.s.s.s.s.s.s.s.s.s.s.",
"d.s.s.s.s.s.s.s.s.s.s.j.8   v.).D.*.&.~ ] ] ] Y.).-.~ D : i J.n.*   G { ~ ] ] ] ] ~ ] -       <.j.s.s.s.s.s.s.s.s.s.s.s.s.s.s.s.",
"d.s.s.s.s.s.s.s.s.s.s.j.8   b.).).).U.~ ] ] ] Y.).-.! ] } I         G { ] ] ] ] ] ~ ] -       <.j.s.s.s.s.s.s.s.s.s.s.s.s.s.s.s.",
"d.s.s.s.s.s.s.s.s.s.s.j.8   z.).W.).P.~ ] ] ] Y.).-.~ ] ) U @ @     G { ] ] ] ] ] ~ ] -       <.j.s.s.s.s.s.s.s.s.s.s.s.s.s.s.s.",
"s.g.s.s.s.s.s.s.s.s.s.j.7   *   m ).F.~ ] ~ ] Y.).-.~ ] ] ^ _ Y @   G { ] ] ] ] ] ~ ' -       <.j.s.s.s.s.s.s.s.s.s.s.s.s.s.s.s.",
"s.g.s.s.s.s.s.s.s.s.s.j.7   .   n ).P.~ ] ~ ] Y.).-.~ ] ] ] ) T +   G { ] ] ] ] ~ { [ :   .   <.j.s.s.s.s.s.s.s.s.s.s.s.s.s.s.s.",
"s.g.s.s.s.s.s.s.s.s.s.s.r.e.e.y.4.q v T.F.[ ~ *.=.$.~ ] ] ] ~ ^ K G ' ] ] ] ~ ~ L , , o   3.r.i.j.s.s.s.s.s.s.s.s.s.s.s.s.s.s.s.",
"d.s.s.s.s.s.s.s.s.s.s.s.j.j.j.l.<.  f ).).[ ! ~ ~ ~ ] ] ] ] ] ~ { { ] ] ] ] ] ..Y         8.l.g.s.s.s.s.s.s.s.s.s.s.s.s.s.s.s.s.",
"d.s.s.s.s.s.s.s.s.s.s.s.s.s.s.j.t.1.6.b M Z.A.%.~ ] ] ] ] ] ] ] ] ] ^ ^ ^ ] K u r   X >.3.y.j.s.s.s.s.s.s.s.s.s.s.s.s.s.s.s.s.s.",
"d.s.s.s.s.s.s.s.s.s.s.s.s.s.s.s.j.l.q.  o ).).=.~ ] ] ] ] ] ] ] ] ] { } { X.Z         i.l.j.s.s.s.s.s.s.s.s.s.s.s.s.s.s.s.s.s.s.",
"d.s.s.s.s.s.s.s.s.s.s.s.s.s.s.s.s.j.0.  * z.z.@.~ ] ] ] ] ] ] ] ~ ] S B B A a   & l l i.s.s.s.s.s.s.s.s.s.s.s.s.s.s.s.s.s.s.s.s.",
"d.s.s.s.s.s.s.s.s.s.s.s.s.s.s.s.s.j.8.        L } { { { { { { { ) | >           6 l.j.s.s.s.s.s.s.s.s.s.s.s.s.s.s.s.s.s.s.s.s.s.",
"d.s.s.s.s.s.s.s.s.s.s.s.s.s.s.s.s.j.e.s d X   F I H P P P P P P K I <   5 d d 7 l d.s.s.s.s.s.s.s.s.s.s.s.s.s.s.s.s.s.s.s.s.s.s.",
"d.s.s.s.s.s.s.s.s.s.s.s.s.s.s.s.s.s.j.j.d.#                             3.l.j.j.j.s.s.s.s.s.s.s.s.s.s.s.s.s.s.s.s.s.s.s.s.s.s.s.",
"d.s.s.s.s.s.s.s.s.s.s.s.s.s.s.s.s.s.s.g.i.6 % 3 2 3 3 3 3 3 2 2 2 2 3 # 5.j.s.s.s.s.s.s.s.s.s.s.s.s.s.s.s.s.s.s.s.s.s.s.s.s.s.s.",
"d.s.s.s.s.s.s.s.s.s.s.s.s.s.s.s.s.s.s.s.s.p.p.a.a.a.a.a.a.a.a.a.a.a.a.p.s.d.s.s.s.s.s.s.s.s.s.s.s.s.s.s.s.s.s.s.s.s.s.s.s.s.s.s.",
"d.s.s.s.s.s.s.s.s.s.s.s.s.s.s.s.s.s.s.s.s.j.j.g.g.g.g.g.g.g.g.g.g.g.g.j.g.s.s.s.s.s.s.s.s.s.s.s.s.s.s.s.s.s.s.s.s.s.s.s.s.s.s.s.",
"d.s.s.s.s.s.s.s.s.s.s.s.s.s.s.s.s.s.s.s.s.s.s.s.s.s.s.s.s.s.s.s.s.s.s.s.s.s.s.s.s.s.s.s.s.s.s.s.s.s.s.s.s.s.s.s.s.s.s.s.s.s.s.s.",
"d.s.s.s.s.s.s.s.s.s.s.s.s.s.s.s.s.s.s.s.s.s.s.s.s.s.s.s.s.s.s.s.s.s.s.s.s.s.s.s.s.s.s.s.s.s.s.s.s.s.s.s.s.s.s.s.s.s.s.s.s.s.s.s.",
"d.s.s.s.s.s.s.s.s.s.s.s.s.s.s.s.s.s.s.s.s.s.s.s.s.s.s.s.s.s.s.s.s.s.s.s.s.s.s.s.s.s.s.s.s.s.s.s.s.s.s.s.s.s.s.s.s.s.s.s.s.s.s.s.",
"d.s.s.s.s.s.s.s.s.s.s.s.s.s.s.s.s.s.s.s.s.s.s.s.s.s.s.s.s.s.s.s.s.s.s.s.s.s.s.s.s.s.s.s.s.s.s.s.s.s.s.s.s.s.s.s.s.s.s.s.s.s.s.s.",
"d.s.s.s.s.s.s.s.s.s.s.s.s.s.s.s.s.s.s.s.s.s.s.s.s.s.s.s.s.s.s.s.s.s.s.s.s.s.s.s.s.s.s.s.s.s.s.s.s.s.s.s.s.s.s.s.s.s.s.s.s.s.s.s.",
"d.s.s.s.s.s.s.s.s.s.s.s.s.s.s.s.s.s.s.s.s.s.s.s.s.s.s.s.s.s.s.s.s.s.s.s.s.s.s.s.s.s.s.s.s.s.s.s.s.s.s.s.s.s.s.s.s.s.s.s.s.s.s.s.",
"d.s.s.s.s.s.s.s.s.s.s.s.s.s.s.s.s.s.s.s.s.s.s.s.s.s.s.s.s.s.s.s.s.s.s.s.s.s.s.s.s.s.s.s.s.s.s.s.s.s.s.s.s.s.s.s.s.s.s.s.s.s.s.s.",
"d.s.s.s.s.s.s.s.s.s.s.s.s.s.s.s.s.s.s.s.s.s.s.s.s.s.s.s.s.s.s.s.s.s.s.s.s.s.s.s.s.s.s.s.s.s.s.s.s.s.s.s.s.s.s.s.s.s.s.s.s.s.s.s.",
"d.s.s.s.s.s.s.s.s.s.s.s.s.s.s.s.s.s.s.s.s.s.s.s.s.s.s.s.s.s.s.s.s.s.s.s.s.s.s.s.s.s.s.s.s.s.s.s.s.s.s.s.s.s.s.s.s.s.s.s.s.s.s.s.",
"d.g.s.s.s.s.s.s.s.s.s.s.s.s.s.s.s.s.s.s.s.s.s.s.s.s.s.s.s.s.s.s.s.s.s.s.s.s.s.s.s.s.s.s.s.s.s.s.s.s.s.s.s.s.s.s.s.s.s.s.s.s.s.s.",
"d.s.s.s.s.s.s.s.s.s.s.s.s.s.s.s.s.s.s.s.s.s.s.s.s.s.s.d.s.s.s.s.s.s.d.d.s.s.s.s.s.s.s.s.s.d.s.s.s.s.s.s.s.s.s.s.s.s.s.s.s.s.s.s."
};
