/* XPM */
static char *E[] = {
/* columns rows colors chars-per-pixel */
"64 63 173 2 ",
"   c #000000",
".  c #0E0705",
"X  c #0D0D0D",
"o  c #100907",
"O  c #160D09",
"+  c #1B0D09",
"@  c #1F110C",
"#  c #151515",
"$  c #171718",
"%  c #21120D",
"&  c #271A15",
"*  c #2C1A13",
"=  c #31221D",
"-  c #232424",
";  c #343535",
":  c #3B3B3B",
">  c #43281C",
",  c #4B3024",
"<  c #593426",
"1  c #593E33",
"2  c #653423",
"3  c #733A26",
"4  c #7D3F27",
"5  c #753D28",
"6  c #793F2A",
"7  c #75402B",
"8  c #7D422C",
"9  c #7B4532",
"0  c #48494A",
"q  c #5B5A59",
"w  c #726F6E",
"e  c #727273",
"r  c #7E7B7A",
"t  c #82452E",
"y  c #89472E",
"u  c #844730",
"i  c #864931",
"p  c #8B4C33",
"a  c #804C38",
"s  c #904F35",
"d  c #945339",
"f  c #9A563A",
"g  c #9D5A3D",
"h  c #A15B3E",
"j  c #A85F3F",
"k  c #865543",
"l  c #8D5F4F",
"z  c #955C46",
"x  c #A35E41",
"c  c #9E634A",
"v  c #9A6956",
"b  c #9E6C59",
"n  c #A66143",
"m  c #AC6445",
"M  c #A5664B",
"N  c #AF6748",
"B  c #AE684A",
"V  c #B36947",
"C  c #B06748",
"Z  c #BA6E4C",
"A  c #BD704E",
"S  c #AB6E54",
"D  c #B46F51",
"F  c #A3715D",
"G  c #BB7353",
"H  c #B5775B",
"J  c #BC7A5C",
"K  c #A77966",
"L  c #B57C64",
"P  c #B97E64",
"I  c #C07757",
"U  c #C27D5E",
"Y  c #C47F60",
"T  c #BD846B",
"R  c #A68275",
"E  c #AB8474",
"W  c #AE8878",
"Q  c #B38673",
"!  c #B48B7A",
"~  c #BC917E",
"^  c #C48264",
"/  c #C2876D",
"(  c #C88A6E",
")  c #C98D71",
"_  c #CB9176",
"`  c #CE987F",
"'  c #65BDF9",
"]  c #68BFF9",
"[  c #6FC2FA",
"{  c #72C3FA",
"}  c #7AC7FA",
"|  c #7EC8FA",
" . c #898786",
".. c #908B88",
"X. c #939292",
"o. c #9C9896",
"O. c #A88E84",
"+. c #B18F81",
"@. c #B9978A",
"#. c #AE9C94",
"$. c #BDA297",
"%. c #B6B7B7",
"&. c #B7B7B8",
"*. c #C39582",
"=. c #C69884",
"-. c #CB9A84",
";. c #C39E8E",
":. c #CC9E89",
">. c #D09F88",
",. c #D4A38C",
"<. c #C7A191",
"1. c #C3A69B",
"2. c #C4A99D",
"3. c #CDAB9A",
"4. c #D3A995",
"5. c #DAAC95",
"6. c #D7AE9A",
"7. c #DBB19D",
"8. c #CCADA0",
"9. c #CCB2A7",
"0. c #D4B2A3",
"q. c #DBB7A5",
"w. c #D2B6A9",
"e. c #DDB9A8",
"r. c #C9B9B3",
"t. c #E0BAA7",
"y. c #D5C3BD",
"u. c #D9C3BA",
"i. c #E5C7B8",
"p. c #E8CABB",
"a. c #81CAFB",
"s. c #8ED0FC",
"d. c #93D2FC",
"f. c #9CD7FD",
"g. c #A3DAFE",
"h. c #ADDDFC",
"j. c #B4E1FD",
"k. c #BCE5FE",
"l. c #C6C6C6",
"z. c #C9CACA",
"x. c #D0C7C2",
"c. c #DBCBC4",
"v. c #D8D8D7",
"b. c #D5D9DF",
"n. c #DEDCDB",
"m. c #E8CFC2",
"M. c #ECD8CD",
"N. c #EDDBD2",
"B. c #E2DCDA",
"V. c #EFE4DE",
"C. c #F2E3DC",
"Z. c #DCDFE3",
"A. c #DEE2E7",
"S. c #DDE4EA",
"D. c #C2E8FF",
"F. c #CDEBFE",
"G. c #DAEEFB",
"H. c #DEF1FB",
"J. c #EAE4E2",
"K. c #E0E7EB",
"L. c #E9EDEF",
"P. c #F1E9E4",
"I. c #F1E9E5",
"U. c #F9EDE6",
"Y. c #F4F2EF",
"T. c #FAF3EF",
"R. c #EBEEF1",
"E. c #E0EFF9",
"W. c #EDF0F2",
"Q. c #ECF8FE",
"!. c #F8F5F3",
"~. c #F2F9FC",
"^. c white",
/* pixels */
"' ' ' ' ' ' ' ' ' ' ' ' ' ' ' ' ' ' ' ' ' ' ' ' ' ' ' ' ' ' ' ' ' ' ' ' ' ' ' ' ' ' ' ' ' ' ' ' ' ' ' ' ' ' ' ' ' ' ' ' ' ' ' ' ",
"' ' ' ' ' ' ' ' ' ' ' ' ' ' ' ' ' ' ' ' ' ' ' ' ' ' ' ' ' ' ' ' ' ' ' ' ' ' ' ' ' ' ' ' ' ' ' ' ' ' ' ' ' ' ' ' ' ' ' ' ' ' ' ' ",
"' ' ' ' ' ' ' ' ' ' ' ' ' ' ' ' ' ' ' ' ' ' ' ' ' ' ' ' ' ' ' ' ' ' ' ' ' ' ' ' ' ' ' ' ' ' ' ' ' ' ' ' ' ' ' ' ' ' ' ' ' ' ' ' ",
"' ' ' ' ' ' ' ' ' ' ' ' ' ' ' ' ' ' ' ' ' ' ' ' ' ' ' ' ' ' ' ' ' ' ' ' ' ' ' ' ' ' ' ' ' ' ' ' ' ' ' ' ' ' ' ' ' ' ' ' ' ' ' ' ",
"' ' ' ' ' ' ' ' ' ' ' ' ' ' ' ' ' ' ' ' ' ' ' ' ' ' ' ' ' ' ' ' ' ' ' ' ' ' ' ' ' ' ' ' ' ' ' ' ' ' ' ' ' ' ' ' ' ' ' ' ' ' ' ' ",
"' ' ' ' ' ' ' ' ' ' ' ' ' ' ' ' ' ' ' ' ' ' ' ' ' ' ' ' ' ' ' ' ' ' ' ' ' ' ' ' ' ' ' ' ' ' ' ' ' ' ' ' ' ' ' ' ' ' ' ' ' ' ' ' ",
"' ' ' ' ' ' ' ' ' ' ' ' ' ' ' ' ' ' ' ' ' ' ' ' ' ' ' ' ' ' ' ' ' ' ' ' ' ' ' ' ' ' ' ' ' ' ' ' ' ' ' ' ' ' ' ' ' ' ' ' ' ' ' ' ",
"' ' ' ' ' ' ' ' ' ' ' ' ' ' ' ' ' ' ' { { { { [ ' ' ' ' ] { { { { { { { ' ' ' ' ' { { { { { ' ' ' ' ' ' ' ' ' ' ' ' ' ' ' ' ' ' ",
"' ' ' ' ' ' ' ' ' ' ' ' ' ' ' ' ' ' } G.A.b.S.k.' ' ' ' a.E.A.Z.Z.Z.S.G.} ' ' ' [ F.S.b.K.F.[ ' ' ' ' ' ' ' ' ' ' ' ' ' ' ' ' ' ",
"' ' ' ' ' ' ' ' ' ' ' ' ' ' ' ' ' ' a.W.` z 2.F.' ' ' ' d.I.) U Y U -.W.| ' ' ' { Q.+.M 5.Q.[ ' ' ' ' ' ' ' ' ' ' ' ' ' ' ' ' ' ",
"' ' ' ' ' ' ' ' ' ' ' ' ' ' ' ' ' ' a.W.( m 0.F.' ' ' ' d.J.z m A h F R.| ' ' ' { Q.=.C ,.H.[ ' ' ' ' ' ' ' ' ' ' ' ' ' ' ' ' ' ",
"' ' ' ' ' ' ' ' ' ' ' ' ' ' ' ' ' ' a.R.K m t.F.' ' ' ' s.J.S V A m L R.} ' ' ' [ H.,.h ! H.[ ' ' ' ' ' ' ' ' ' ' ' ' ' ' ' ' ' ",
"' ' ' ' ' ' ' ' ' ' ' ' ' ' ' ' ' ' a.L.F m e.H.d.d.d.d.j.I.^ m x m _ !.g.d.d.d.f.Q.,.f ! H.[ ' ' ' ' ' ' ' ' ' ' ' ' ' ' ' ' ' ",
"' ' ' ' ' ' ' ' ' ' ' ' ' ' ' ' ' ' a.R./ Z 6.I.I.I.I.I.I.M.J s 8 f ) C.I.I.I.I.I.I.-.C -.H.[ ' ' ' ' ' ' ' ' ' ' ' ' ' ' ' ' ' ",
"' ' ' ' ' ' ' ' ' ' ' ' ' ' ' ' ' ' a.L.v m I Y U U U U U U A V V Z G U U U U U U U G f E H.[ ' ' ' ' ' ' ' ' ' ' ' ' ' ' ' ' ' ",
"' ' ' ' ' ' ' ' ' ' ' ' ' ' ' ' ' ' a.R.T V A Z Z Z Z g d Z A A A A A Z s m Z Z Z Z Z C -.H.[ ' ' ' ' ' ' ' ' ' ' ' ' ' ' ' ' ' ",
"' ' ' ' ' ' ' ' ' ' ' ' ' ' ' ' ' ' a.W.) Z A A A Z Z m h Z Z A A Z Z Z h m Z Z A A A Z ,.H.[ ' ' ' ' ' ' ' ' ' ' ' ' ' ' ' ' ' ",
"' ' ' ' ' ' ' ' ' ' ' ' ' ' ' ' ' ' a.R.L h C A I >.,.,.,.,.>.S h L ,.,.,.,.,.` G A m h *.H.[ ' ' ' ' ' ' ' ' ' ' ' ' ' ' ' ' ' ",
"' ' ' ' ' ' ' ' ' ' ' ' ' ' ' ' ' ' a.L.v 8 g Z H x.v.v.v.n.Y.K 4 @.!.v.v.v.v.r.V Z f 8 E H.[ ' ' ' ' ' ' ' ' ' ' ' ' ' ' ' ' ' ",
"' ' ' ' ' ' ' ' ' ' ' ' ' ' ' ' ' ' a.R.T V Z m 7 & $ $ # : B.` C 6.z.- # $ # = u V Z C -.H.[ ' ' ' ' ' ' ' ' ' ' ' ' ' ' ' ' ' ",
"' ' ' ' ' ' ' ' ' ' ' ' ' ' ' ' ' ' a.L.v m A Z g O       - n.` Z 7.l.X       * m Z G f E H.[ ' ' ' ' ' ' ' ' ' ' ' ' ' ' ' ' ' ",
"' ' ' ' ' ' ' ' ' ' ' ' ' ' ' ' ' ' a.R.L V A A n O       - n.` Z 7.l.X       * V A A m *.H.[ ' ' ' ' ' ' ' ' ' ' ' ' ' ' ' ' ' ",
"' ' ' ' ' ' ' ' ' ' ' ' ' ' ' ' ' ' a.W.) Z m g i O       - n.Q d <.l.X       % f g C Z ,.H.[ ' ' ' ' ' ' ' ' ' ' ' ' ' ' ' ' ' ",
"' ' ' ' ' ' ' ' ' ' ' ' ' ' ' ' ' ' a.R.T V h i 5 o       - n.K t @.l.X       % 8 i m C =.H.[ ' ' ' ' ' ' ' ' ' ' ' ' ' ' ' ' ' ",
"' ' ' ' ' ' ' ' ' ' ' ' ' ' ' ' ' ' a.L.v m A Z n O       - n.` V 7.l.X       * V Z A f E H.[ ' ' ' ' ' ' ' ' ' ' ' ' ' ' ' ' ' ",
"' ' ' ' ' ' ' ' ' ' ' ' ' ' ' ' ' ' a.R.T V A A n O       - n.` Z 7.l.X       * V A A V -.H.[ ' ' ' ' ' ' ' ' ' ' ' ' ' ' ' ' ' ",
"' ' ' ' ' ' ' ' ' ' ' ' ' ' ' ' ' ' a.W.) Z A C 8 O       - n.K y ;.l.X       % p V A Z ,.H.[ ' ' ' ' ' ' ' ' ' ' ' ' ' ' ' ' ' ",
"' ' ' ' ' ' ' ' ' ' ' ' ' ' ' ' ' ' a.R.K f m m 2 .       - n.Q s <.l.X       + 3 C n f ~ H.[ ' ' ' ' ' ' ' ' ' ' ' ' ' ' ' ' ' ",
"' ' ' ' ' ' ' ' ' ' ' ' ' ' ' ' ' ' a.R.b t x m 7 o       - n.` Z 7.l.X       % i V f t Q H.[ ' ' ' ' ' ' ' ' ' ' ' ' ' ' ' ' ' ",
"' ' ' ' ' ' ' ' ' ' ' ' ' ' ' ' ' ' a.R./ V Z A n O       - n.` C 6.l.X       * V A Z V -.H.[ ' ' ' ' ' ' ' ' ' ' ' ' ' ' ' ' ' ",
"' ' ' ' ' ' ' ' ' ' ' ' ' ' ' ' ' ' a.L.b m A A x O       - n.K t @.l.X       * V A A f E H.[ ' ' ' ' ' ' ' ' ' ' ' ' ' ' ' ' ' ",
"' ' ' ' ' ' ' ' ' ' ' ' ' ' ' ' ' ' | R.T V A m 5 o       - n.) j 4.l.X       @ i V A C -.H.[ ' ' ' ' ' ' ' ' ' ' ' ' ' ' ' ' ' ",
"' ' ' ' ' ' ' ' ' ' ' d.j.j.h.{ d.j.D.!.) Z A V i o       - n.` Z 7.l.X       % f V A Z ,.~.k.j.a.| j.j.j.a.' ' ' ' ' ' ' ' ' ' ",
"' ' ' ' ' ' ' ' ' ' ' k.U.M.~.a.k.U.m.i.^ Z A A B , > > > 1 w.( Z >.2., > > > < V A A Z _ i.m.T.g.d.!.m.T.g.' ' ' ' ' ' ' ' ' ' ",
"' ' ' ' ' ' ' ' ' ' ' k.i.) W.| k.i.A V C C V A Z C m V Z Z A V C V A Z Z V m V Z A V C C V G N.g.d.V.^ N.g.' ' ' ' ' ' ' ' ' ' ",
"' ' ' ' ' ' ' ' ' ' ' k.i.) W.a.k.i.m t 8 8 g A V i 8 g A A Z p 8 f A A A f 8 p Z A f 8 8 p G N.g.d.V.^ N.g.' ' ' ' ' ' ' ' ' ' ",
"' ' ' ' ' ' ' ' ' ' ' k.i.) !.H.Q.i.Z m m m V A Z m m V A A A C m V A A A V m C A A V m m m G N.Q.Q.C.^ N.g.' ' ' ' ' ' ' ' ' ' ",
"' ' ' ' ' ' ' ' ' ' ' k.i.H @.I.^.i.A G A A n g Z A A m d f Z A A A V f d m A A Z f m G A A G N.^.B.! J N.g.' ' ' ' ' ' ' ' ' ' ",
"' ' ' ' ' ' ' ' ' ' ' k.p.V f 0.m.4.V n V A x f A A A x p f Z A A A V d p m A A Z f m A V n G q.m.;.f G N.g.' ' ' ' ' ' ' ' ' ' ",
"' ' ' ' ' ' ' ' ' ' ' k.i.Z m N B V m 8 x m V Z C m m V Z m C Z A V m m Z V m m C Z V C g t V V N N C G N.g.' ' ' ' ' ' ' ' ' ' ",
"' ' ' ' ' ' ' ' ' ' ' k.p.N 8 8 6 f m 8 6 6 g m 8 8 8 g m 8 8 B U x 6 8 N f 8 8 t V d 8 5 t V p 6 6 i G N.g.' ' ' ' ' ' ' ' ' ' ",
"' ' ' ' ' ' ' ' ' ' ' k.p.m 8 5 5 d m 8 5 5 f m 6 5 5 g m 8 9 9.N.@.5 8 N d 5 5 8 m p 3 5 t V i 5 5 t G N.g.' ' ' ' ' ' ' ' ' ' ",
"' ' ' ' ' ' ' ' ' ' ' k.i.Z m n n C Z m n n V V m n n C / y.y.w 0  .c.r.P m n n m Z m n n m Z m n n m G N.g.' ' ' ' ' ' ' ' ' ' ",
"' ' ' ' ' ' ' ' ' ' ' k.i.V h g g m V g g g m V g g f T 2.X...-   : X.X.3.H f g h V m g g x Z x g g x G N.g.' ' ' ' ' ' ' ' ' ' ",
"' ' ' ' ' ' ' ' ' ' ' k.p.m 6 5 3 d m 6 3 3 f m 5 5 l #. .            X o.O.k 3 8 m p 3 5 t V i 3 3 t G N.g.' ' ' ' ' ' ' ' ' ' ",
"' ' ' ' ' ' ' ' ' ' ' k.i.N t 8 8 f m t 8 8 g m 8 k r.e                 X X.$.a t C f 8 8 i V p 8 8 p G N.g.' ' ' ' ' ' ' ' ' ' ",
"' ' ' ' ' ' ' ' ' ' ' k.i.Z V V V V Z V V V V Z J c.q X                   # r u.D Z V V V V Z V V C V G N.g.' ' ' ' ' ' ' ' ' ' ",
"' ' ' ' ' ' ' ' ' ' ' k.p.V d p p g V d p p x Z ^ I.0                       e C.G Z g p p f V f p p f G N.g.' ' ' ' ' ' ' ' ' ' ",
"' ' ' ' ' ' ' ' ' ' ' k.p.m 5 3 3 d m 5 3 3 f ^ 3...-                       : o.4.J p 3 3 8 V u 3 3 8 G N.g.' ' ' ' ' ' ' ' ' ' ",
"' ' ' ' ' ' ' ' ' ' ' k.i.V p p i g V p i i S q.n.$                           : L.4.c i i d V f i i d G N.g.' ' ' ' ' ' ' ' ' ' ",
"' ' ' ' ' ' ' ' ' ' ' k.i.Z V V V V Z V V C 0.!.l.$                           ; n.!.-.C V V Z V V V V G N.g.' ' ' ' ' ' ' ' ' ' ",
"' ' ' ' ' ' ' ' ' ' ' k.p.V t 8 8 f m t 8 8 1.l.-                               ; v.E 8 8 p V p 8 8 p G N.g.' ' ' ' ' ' ' ' ' ' ",
"' ' ' ' ' ' ' ' ' ' ' k.p.m 8 5 3 d m 6 3 3 $.%.                                # v.R 3 3 t V i 3 3 t G N.g.' ' ' ' ' ' ' ' ' ' ",
"' ' ' ' ' ' ' ' ' ' ' k.i.V x h g m V x h g 0.%.                                # v.*.g g x Z n g g x G N.g.' ' ' ' ' ' ' ' ' ' ",
"' ' ' ' ' ' ' ' ' ' ' k.i.V x x x m V x x h 0.%.                                # v.=.h x n Z m x x n G N.g.' ' ' ' ' ' ' ' ' ' ",
"' ' ' ' ' ' ' ' ' ' ' k.p.m 6 5 3 d m 8 5 3 $.%.                                # v.R 3 5 t V i 3 3 t G N.g.' ' ' ' ' ' ' ' ' ' ",
"' ' ' ' ' ' ' ' ' ' ' k.i.m 8 6 6 f m 8 6 5 $.&.                                # v.E 3 6 u V p 6 6 t G N.g.' ' ' ' ' ' ' ' ' ' ",
"' ' ' ' ' ' ' ' ' ' ' k.i.Z m m m V Z m m m q.%.                                # v.:.m m C Z V m m m G N.g.' ' ' ' ' ' ' ' ' ' ",
"' ' ' ' ' ' ' ' ' ' ' k.i.V f f d x V f d s 8.%.                                # v.~ s f f V g f f f G N.g.' ' ' ' ' ' ' ' ' ' ",
"' ' ' ' ' ' ' ' ' ' ' k.p.m 6 3 3 d m 6 3 3 $.&.                                # v.R 3 3 8 V i 3 3 t G N.g.' ' ' ' ' ' ' ' ' ' ",
"' ' ' ' ' ' ' ' ' ' ' k.p.V i t t f C i t t 1.&.                                # v.W 8 t p V d t t p G N.g.' ' ' ' ' ' ' ' ' ' ",
"' ' ' ' ' ' ' ' ' ' ' k.i.Z V V V V Z V V C e.%.                                # v.:.C V V Z V V V V G N.g.' ' ' ' ' ' ' ' ' ' ",
"' ' ' ' ' ' ' ' ' ' ' k.p.V p i i g V p i u 2.%.                                # v.! t u p V f i i s G N.g.' ' ' ' ' ' ' ' ' ' "
};
