/* XPM */
static char *plaa[] = {
/* columns rows colors chars-per-pixel */
"64 64 211 2 ",
"   c #1A1A1C",
".  c #1B1615",
"X  c #231E1B",
"o  c #19282F",
"O  c #31302F",
"+  c #303131",
"@  c #2B2928",
"#  c #5B2A3E",
"$  c #592A3F",
"%  c #642B3C",
"&  c #1D3A49",
"*  c #213A49",
"=  c #4A2D43",
"-  c #422E44",
";  c #542C42",
":  c #5C2C43",
">  c #5A2C46",
",  c #4C3146",
"<  c #4C344A",
"1  c #473648",
"2  c #5C3345",
"3  c #54344B",
"4  c #52394E",
"5  c #57364A",
"6  c #553B52",
"7  c #5B3D51",
"8  c #573750",
"9  c #4E3E50",
"0  c #632C41",
"q  c #692D42",
"w  c #643245",
"e  c #6D3244",
"r  c #643449",
"t  c #69384A",
"y  c #743344",
"u  c #7B3644",
"i  c #7D3946",
"p  c #753749",
"a  c #7A3649",
"s  c #743A4A",
"d  c #7C3A4A",
"f  c #753843",
"g  c #673D51",
"h  c #2E4956",
"j  c #3B4968",
"k  c #25546C",
"l  c #3E5475",
"z  c #2F5876",
"x  c #29627D",
"c  c #49435B",
"v  c #5C4254",
"b  c #5D4A5D",
"n  c #574357",
"m  c #624553",
"M  c #694857",
"N  c #76535C",
"B  c #75505C",
"V  c #474C6B",
"C  c #4B5675",
"Z  c #475677",
"A  c #545778",
"S  c #554E6D",
"D  c #664C65",
"F  c #685667",
"G  c #785E6A",
"H  c #695C7B",
"J  c #695875",
"K  c #486C73",
"L  c #75666B",
"P  c #736372",
"I  c #796B78",
"U  c #67617E",
"Y  c #85323E",
"T  c #832B35",
"R  c #833542",
"E  c #823A46",
"W  c #833B49",
"Q  c #8A424D",
"!  c #8B4551",
"~  c #924C56",
"^  c #84555E",
"/  c #97525C",
"(  c #895D68",
")  c #9C5864",
"_  c #A35D67",
"`  c #88656B",
"'  c #93666A",
"]  c #966A72",
"[  c #987379",
"{  c #8C6C72",
"}  c #A7646D",
"|  c #AD6B74",
" . c #AA6C76",
".. c #B16E76",
"X. c #A77676",
"o. c #B3707A",
"O. c #F95A5A",
"+. c #F17576",
"@. c #ED6C6D",
"#. c #A1817F",
"$. c #306484",
"%. c #405D81",
"&. c #4B698E",
"*. c #73718A",
"=. c #5279A1",
"-. c #867A87",
";. c #A87F81",
":. c #3B89B6",
">. c #3D88A7",
",. c #5D869F",
"<. c #538EAF",
"1. c #7F98A9",
"2. c #3B96CB",
"3. c #3B9DD1",
"4. c #3BA1D7",
"5. c #3DA9E3",
"6. c #3EAEE9",
"7. c #3FBFFE",
"8. c #3DB8F7",
"9. c #3FB2EF",
"0. c #4298CC",
"q. c #429CD2",
"w. c #499CD1",
"e. c #42A3DB",
"r. c #42AEE8",
"t. c #40B2EE",
"y. c #41BFFD",
"u. c #42BFFD",
"i. c #41B6F3",
"p. c #3FC1FF",
"a. c #3FC6FF",
"s. c #3FC7FF",
"d. c #3FC5FF",
"f. c #3FC2FF",
"g. c #3BCEFF",
"h. c #3DCAFF",
"j. c #40C6FF",
"k. c #40C3FF",
"l. c #40CDFF",
"z. c #43CCFF",
"x. c #8D838E",
"c. c #9E9E9E",
"v. c #9D9A97",
"b. c #94878E",
"n. c #B88B87",
"m. c #BE9089",
"M. c #A98C8C",
"N. c #9E9CA1",
"B. c #A39BA5",
"V. c #ACA3AC",
"C. c #B3ABB4",
"Z. c #BBB6BB",
"A. c #89A4B4",
"S. c #D49E8F",
"D. c #C79C96",
"F. c #D29D92",
"G. c #C39289",
"H. c #CBA49C",
"J. c #CBA399",
"K. c #DEA997",
"L. c #E2A997",
"P. c #E4B19C",
"I. c #DBACA4",
"U. c #CDACAA",
"Y. c #E9B9AA",
"T. c #F5BDA8",
"R. c #F2B7B8",
"E. c #E2B3AF",
"W. c #FBC3AB",
"Q. c #F5C3AB",
"!. c #EAC2B4",
"~. c #FBCBB5",
"^. c #FBCFBB",
"/. c #F4C6B4",
"(. c #FED2BD",
"). c #FFD8BD",
"_. c #EDC0AD",
"`. c #B6B8C0",
"'. c #C1BCC2",
"]. c #E9BFC1",
"[. c #9DD0EA",
"{. c #ABCFE7",
"}. c #C5C2C6",
"|. c #CECBCE",
" X c #CBC6CA",
".X c #CECBD0",
"XX c #D3C9D2",
"oX c #D8D7D8",
"OX c #EDC8C8",
"+X c #F4C9C4",
"@X c #FED5C1",
"#X c #FFDBC5",
"$X c #FFDDCA",
"%X c #F4D7CB",
"&X c #EBDBDA",
"*X c #DFDEE0",
"=X c #E5DEE1",
"-X c #DAE0E4",
";X c #E2E1E2",
":X c #ECECED",
">X c #EAE7E9",
",X c #F1EDEC",
"<X c #F4E7E7",
"1X c #EFF0EF",
"2X c #F1F0EF",
"3X c #EFEFF0",
"4X c #F1EFF1",
"5X c #EEF1F2",
"6X c #F2F2F2",
"7X c #FBFCFD",
"8X c #F8F6F7",
/* pixels */
"y.7.7.7.7.7.7.7.7.7.7.7.7.7.7.7.7.7.7.7.7.7.7.7.7.7.7.7.7.7.7.7.7.7.7.7.7.7.7.7.7.7.7.7.7.7.7.7.7.7.7.7.7.7.7.7.7.7.7.7.7.7.7.7.",
"y.7.7.7.7.7.7.7.7.7.7.7.7.7.7.7.7.7.7.7.7.7.7.7.7.7.7.7.7.7.7.7.7.7.7.7.7.7.7.7.7.7.7.7.7.7.7.7.7.7.7.7.7.7.7.7.7.7.7.7.7.7.7.7.",
"y.7.7.7.7.7.7.7.7.7.7.7.7.7.7.7.7.7.7.7.7.7.7.7.7.7.7.7.7.7.7.7.7.7.7.7.7.7.7.7.7.7.7.7.7.7.7.7.7.7.7.7.7.7.7.7.7.7.7.7.7.7.7.7.",
"y.7.7.7.7.7.7.7.7.7.7.7.7.7.7.7.7.7.7.7.7.7.7.7.7.7.7.7.7.7.7.7.7.7.7.7.7.7.7.7.7.7.7.7.7.7.7.7.7.7.7.7.7.7.7.7.7.7.7.7.7.7.7.7.",
"y.7.7.7.7.7.7.7.7.7.7.7.7.7.7.7.7.7.7.7.7.7.7.7.7.7.7.7.7.7.7.7.7.7.7.7.7.7.7.7.7.7.7.7.7.7.7.7.7.7.7.7.7.7.7.7.7.7.7.7.7.7.7.7.",
"y.7.7.7.7.7.7.7.7.7.7.7.7.7.7.7.7.7.7.7.7.7.7.7.7.7.7.7.7.7.7.7.7.7.7.7.7.7.7.7.7.7.7.7.7.7.7.7.7.7.7.7.7.7.7.7.7.7.7.7.7.7.7.7.",
"y.7.7.7.7.7.7.7.7.7.7.7.7.7.7.7.7.7.7.7.7.7.7.7.7.7.7.7.7.7.7.7.7.7.7.7.7.7.7.7.7.7.7.7.7.7.7.7.7.7.7.7.7.7.7.7.7.7.7.7.7.7.7.7.",
"y.7.7.7.7.7.7.7.7.7.7.7.7.7.7.7.7.7.7.7.7.7.7.7.7.7.7.7.7.7.7.7.7.7.7.7.7.7.7.7.7.7.7.7.7.7.7.7.7.7.7.7.7.7.7.7.7.7.7.7.7.7.7.7.",
"y.7.7.7.7.7.7.7.7.7.7.7.7.7.7.7.7.7.7.7.7.7.7.7.7.7.7.7.7.7.7.7.7.7.7.7.7.7.7.7.7.7.7.7.7.7.7.7.7.7.7.7.7.7.7.7.7.7.7.7.7.7.7.7.",
"y.7.7.7.7.7.7.7.7.7.7.7.7.7.7.7.7.7.7.7.7.7.7.7.7.7.7.7.7.7.7.7.7.7.7.7.7.7.7.7.7.7.7.7.7.7.7.7.7.7.7.7.7.7.7.7.7.7.7.7.7.7.7.7.",
"y.7.7.7.7.7.7.7.7.7.7.7.7.7.7.7.7.7.7.7.7.7.7.7.7.7.7.7.7.7.7.7.7.7.7.7.7.7.7.7.7.7.7.7.7.7.7.7.7.7.7.7.7.7.7.7.7.7.7.7.7.7.7.7.",
"y.7.7.7.7.7.7.7.7.7.7.7.7.7.7.7.7.7.7.7.7.7.7.y.7.7.7.7.7.7.7.7.7.7.7.7.7.7.7.7.7.7.7.7.7.7.7.7.7.7.7.7.7.7.7.7.7.7.7.7.7.7.7.7.",
"y.7.7.7.7.7.7.7.7.7.7.7.7.7.7.7.7.7.7.7.7.7.7.y.7.7.j.j.j.j.a.a.a.a.a.j.7.7.7.7.7.7.7.7.7.7.7.7.7.7.7.7.7.7.7.7.7.7.7.7.7.7.7.7.",
"y.7.7.7.7.7.7.7.7.7.7.7.7.7.7.7.7.7.7.7.7.7.7.j.a.j.6.2.0.q.q.q.q.0.0.6.a.a.a.7.7.7.7.7.7.7.7.7.7.7.7.7.7.7.7.7.7.7.7.7.7.7.7.7.",
"y.7.7.7.7.7.7.7.7.7.7.7.7.7.7.7.7.7.7.7.y.y.y.9.r.8.=.t g r 2 2 g M 2 &.i.r.9.y.a.7.7.7.7.7.7.7.7.7.7.7.7.7.7.7.7.7.7.7.7.7.7.7.",
"y.7.7.7.7.7.7.7.7.7.7.7.7.7.7.7.7.7.7.7.7.7.y.&.D D ]  .) W E E ) o.( D D b Z 8.y.7.7.7.7.7.7.7.7.7.7.7.7.7.7.7.7.7.7.7.7.7.7.7.",
"y.7.7.7.7.7.7.7.7.7.7.7.7.7.7.7.7.7.7.a.r.V A ]  . ...) E E E E W _  . . .' v V V e.a.7.7.7.7.7.7.7.7.7.7.7.7.7.7.7.7.7.7.7.7.7.",
"y.7.7.7.7.7.7.7.7.7.7.7.7.7.7.7.7.7.a.w.D W }  ....... .) W E E _  . ... . .) d y S 2.j.7.7.7.7.7.7.7.7.7.7.7.7.7.7.7.7.7.7.7.7.",
"y.7.7.7.7.7.7.7.7.7.7.7.7.7.7.7.7.y.g.<.T W ! ! ! Q _ o. .} } } ......_ Q Q Q W Q % :.z.7.7.7.7.7.7.7.7.7.7.7.7.7.7.7.7.7.7.7.7.",
"y.7.7.7.7.7.7.7.7.7.7.7.7.7.7.7.7.a.w.J E E i r p R Q ~ /  . . .~ ! ~ Q R u R E W u A 2.j.7.7.7.7.7.7.7.7.7.7.7.7.7.7.7.7.7.7.7.",
"y.7.7.7.7.7.7.7.7.7.7.7.7.7.7.7.y.g.&.T W E d 8 r i E u E ~ ~ ~ E R R R i y d E E W % $.z.7.y.y.7.7.7.7.7.7.7.7.7.7.7.7.7.7.7.7.",
"y.7.7.7.7.7.7.7.7.7.7.7.7.7.7.7.y.r.U R W E d 8 5 e i E E E E R E W E E u % y W E i y A 6.y.y.y.7.7.7.7.7.7.7.7.7.7.7.7.7.7.7.7.",
"y.7.7.7.7.7.7.7.7.7.7.7.7.7.7.7.a.J Y E W W p 8 6 : e d R W E E E E E E u 0 0 a E i W y Z j.7.7.7.7.7.7.7.7.7.7.7.7.7.7.7.7.7.7.",
"y.7.7.7.7.7.7.7.7.7.7.7.7.7.7.7.a.J Y W W u % 4 m 2 # e d d E E E E E E E d 0 0 a W W y C j.7.7.7.7.7.7.7.7.7.7.7.7.7.7.7.7.7.7.",
"y.7.7.7.7.7.7.7.7.7.7.7.7.7.7.a.=.s E E W u $ 7 G.^ 2 : 0 q a i i i i d E E a 0 u E E p 8 &.a.7.7.7.7.7.7.7.7.7.7.7.7.7.7.7.7.7.",
"y.7.7.7.7.7.7.7.7.7.7.7.7.7.7.a.J Y W E E u : 7 S.K.] m M : r r r r 0 e i i i 0 u E E W y C a.7.7.7.7.7.7.7.7.7.7.7.7.7.7.7.7.7.",
"y.7.7.7.7.7.7.7.7.7.7.7.7.7.7.a.H R W E W d # v S.~.!.P.n.5 , , , , 2 0 q 0 0 0 u W E W u C a.7.7.7.7.7.7.7.7.7.7.7.7.7.7.7.7.7.",
"y.7.7.7.7.7.7.7.7.7.7.7.7.7.7.a.H R W E u e : v S.~.@X).Y.n.n.n.n.M = ; ; ; 2 : u E E E u C a.7.7.7.7.7.7.7.7.7.7.7.7.7.7.7.7.7.",
"y.7.7.7.7.7.7.7.7.7.7.7.7.7.7.a.H R W W y # 5 7 S.~.(.(.(.(.(.~.~.m.[ X.X.' v 5 s E E W u C a.7.7.7.7.7.7.7.7.7.7.7.7.7.7.7.7.7.",
"y.7.7.7.7.7.7.7.7.7.7.7.7.7.7.a.H R W W y 5 n M S.Q.(.(.(.(.(.(.(.(.~.W.T.G.' 8 s E E W u C a.7.7.7.7.7.7.7.7.7.7.7.7.7.7.7.7.7.",
"y.7.7.7.7.7.7.7.7.7.7.7.7.7.7.a.H R W W t v { ] n.m.Y.@X(.(.(.(.(.(.I.n.n.X.K.M s E E W u C a.7.7.7.7.7.7.7.7.7.7.7.7.7.7.7.7.7.",
"y.7.7.7.7.7.7.7.7.7.7.7.7.7.7.a.H R E W r B T._.^ r D.#X(.(.(.(.(.#XX.# ( T.P.m p W E W u C a.7.7.7.7.7.7.7.7.7.7.7.7.7.7.7.7.7.",
"y.7.7.7.7.7.7.7.7.7.7.7.7.7.7.a.H R W u ; N W./.B U.%X(.(.(.(.(.(.$XX.( &X~.P.m p W E E u C a.7.7.7.7.7.7.7.7.7.7.7.7.7.7.7.7.7.",
"y.7.7.7.7.7.7.7.7.7.7.7.7.7.7.a.H Y W y ; N W./.^ M H.#X(.(.(.@X(.$XX.# ] ^.P.m p W E W u C a.7.7.7.7.7.7.7.7.7.7.7.7.7.7.7.7.7.",
"y.7.7.7.7.7.7.7.7.7.7.7.7.7.7.a.H Y W y ; N W./.] s D.#X(.^.Q.(.(.#Xn.t ( (.P.m p E i W u C a.7.7.7.7.7.7.7.7.7.7.7.7.7.7.7.7.7.",
"y.7.7.7.7.7.7.7.7.7.7.7.7.7.7.g.U Y W y ; N T.~.I.D.!.@X(.^.Q.(.@X@XY.D.I.(.P.m s u y W u C a.7.7.7.7.7.7.7.7.7.7.7.7.7.7.7.7.7.",
"y.7.7.7.7.7.7.7.7.7.7.7.7.7.y.q.F R W y ; N W.(.#X#X@X(.(.(.~.(.(.(.@X#X@X(.Y.m s y y W u D 3.7.7.7.7.7.7.7.7.7.7.7.7.7.7.7.7.7.",
"y.7.7.7.7.7.7.7.7.7.7.7.7.a.i.6 u W W y : M H.+X@X(.(.(.(.~././.(.(.(.(.(.^.D.v s y e W E u c 8.a.7.7.7.7.7.7.7.7.7.7.7.7.7.7.7.",
"y.7.7.7.7.7.7.7.7.7.7.7.7.a.i.7 u W E y r 5 v U.!.^.^.(./.K.L.K./.^.^.^.E.H.v 5 d y e d E i c t.a.7.7.7.7.7.7.7.7.7.7.7.7.7.7.7.",
"y.7.7.7.7.7.7.7.7.7.7.7.j.5.V r i W W E y r 5 v v n.H.H.H.D.J.J.H.H.H.M.8 v 5 : u W e % u i 8 V 5.j.7.7.7.7.7.7.7.7.7.7.7.7.7.7.",
"7.a.7.7.7.7.7.7.7.7.7.7.a.e.: u E W W W i e 2 6 b P F N L G G L G F G G b 4 2 : y W y % 0 i s 5 4.j.7.7.7.7.7.7.7.7.7.7.7.7.7.7.",
"7.a.7.7.7.7.7.7.7.7.7.7.a.e.: d E W E W y 2 4 4 B.}.F ( Y.I.I.I.I.B *..XV.- 5 : 0 u W e # q d 4 4.j.7.7.7.7.7.7.7.7.7.7.7.7.7.7.",
"7.a.7.7.7.7.7.7.7.7.7.7.a.e.: q d E E y r , 6 V.;X5X}.b.` ` ` ` ` b.|.6X*XB.9 , : y W i y y r 5 e.a.7.7.7.7.7.7.7.7.7.7.7.7.7.7.",
"y.7.7.7.7.7.7.7.7.7.7.7.a.e.> : e i p r 6 P V.:X6X6X6X'.-.-.F x.x.|.6X6X6X:XN.F 7 r a W E W e 5 e.a.7.7.7.7.7.7.7.7.7.7.7.7.7.7.",
"y.7.7.7.7.7.7.7.7.7.7.7.j.e.; : 0 e r , F '.7X:X:X:X6X1X2X&XC.>X,X,X1X:X:X6X4XC.F > t W W W d # q.a.7.7.7.7.7.7.7.7.7.7.7.7.7.7.",
"y.7.7.7.7.7.7.7.7.7.7.7.j.5.Z 5 : 0 8 - -.7X:X:X'.;X6X5X=XOX<X].<X5X6XoXZ.1X:X6XP = r y y i s C 5.a.7.7.7.7.7.7.7.7.7.7.7.7.7.7.",
"y.7.7.7.7.7.7.7.7.7.7.7.7.a.y.c $ : 5 , x.8X6X;XP XX8X,XR.+.OX@.+X,X7XC.F 6X3X4XI < 2 % 0 p 6 i.a.7.7.7.7.7.7.7.7.7.7.7.7.7.7.7.",
"y.7.7.7.7.7.7.7.7.7.7.7.7.a.8.l 5 2 , -.|.6X6X;XP XX7XR.O.O.@.O.@.OX7XC.F 6X4X:X>X-.= : : 0 C 8.a.7.7.7.7.7.7.7.7.7.7.7.7.7.7.7.",
"y.7.7.7.7.7.7.7.7.7.7.7.7.7.7.y.%., , I Z.*X:X=XP XX7XR.@.O.O.O.+.OX7XC.F :X>XoX}.I , 6 # C 7.7.7.7.7.7.7.7.7.7.7.7.7.7.7.7.7.7.",
"y.7.7.7.7.7.7.7.7.7.7.7.7.7.7.a.i.Z v b -.}.}.Z.F XX6X<XR.+.O.+.OX,X7XC.b }.}.'.I m b , C 9.a.7.7.7.7.7.7.7.7.7.7.7.7.7.7.7.7.7.",
"y.7.7.7.7.7.7.7.7.7.7.7.7.7.7.7.j.V X.` v P P P n |.6X5X,XR.@.OX2X5X7XC.1 P P P , ] [ $ Z a.7.7.7.7.7.7.7.7.7.7.7.7.7.7.7.7.7.7.",
"y.7.7.7.7.7.7.7.7.7.7.7.7.7.7.7.y.2.-...M.{ , 1 I oX6X:X6X<XE.6X6X,X6XXXI - 6 [ ;.M.N V 0.7.7.7.7.7.7.7.7.7.7.7.7.7.7.7.7.7.7.7.",
"y.7.7.7.7.7.7.7.7.7.7.7.7.7.7.7.7.z.:.*.S.n.2 I |.:X6X6X6X6X6X3X:X:X:X:X XF m m.I.N j 2.z.7.7.7.7.7.7.7.7.7.7.7.7.7.7.7.7.7.7.7.",
"y.7.7.7.7.7.7.7.7.7.7.7.7.7.7.7.7.7.z.2.j l &.{.-X;X;X;X;X;X=X;X;XoX|..X|.`.&.j l l 2.z.7.7.7.7.7.7.7.7.7.7.7.7.7.7.7.7.7.7.7.7.",
"y.7.7.7.7.7.7.7.7.7.7.7.7.7.7.7.7.7.7.7.a.a.a.7.A.c.N.c.c.c.c.c.c.c.c.N.v.1.j.a.j.a.7.7.7.7.7.7.7.7.7.7.7.7.7.7.7.7.7.7.7.7.7.7.",
"y.7.7.7.7.7.7.7.7.7.7.7.7.7.7.7.7.7.7.7.7.7.7.7.h @ + + + + O O O + + + O h 7.j.7.7.7.7.7.7.7.7.7.7.7.7.7.7.7.7.7.7.7.7.7.7.7.7.",
"y.7.7.7.7.7.7.7.7.7.7.7.7.7.7.7.7.7.7.7.7.7.y.7.& .                     . & 7.7.7.7.7.7.7.7.7.7.7.7.7.7.7.7.7.7.7.7.7.7.7.7.7.7.",
"y.7.7.7.7.7.7.7.7.7.7.7.7.7.7.7.7.7.7.7.7.7.j.7.o . X . k 5.3.3.5.k . X . * 7.a.7.7.7.7.7.7.7.7.7.7.7.7.7.7.7.7.7.7.7.7.7.7.7.7.",
"y.7.7.7.7.7.7.7.7.7.7.7.7.7.7.7.7.7.7.7.7.7.7.7.2.&   . x z.j.j.z.$..   * 3.7.7.7.7.7.7.7.7.7.7.7.7.7.7.7.7.7.7.7.7.7.7.7.7.7.7.",
"y.7.7.7.7.7.7.7.7.7.7.7.7.7.7.7.7.7.7.7.7.7.7.7.z.z X X x j.7.7.j.$.X X k z.7.7.7.7.7.7.7.7.7.7.7.7.7.7.7.7.7.7.7.7.7.7.7.7.7.7.",
"y.7.7.7.7.7.7.7.7.7.7.7.7.7.7.7.7.7.7.7.7.7.7.7.a.,.L L <.a.7.7.a.<.L L ,.a.7.7.7.7.7.7.7.7.7.7.7.7.7.7.7.7.7.7.7.7.7.7.7.7.7.7.",
"y.7.7.7.7.7.7.7.7.7.7.7.7.7.7.7.7.7.7.7.7.7.7.y.7.{.&X&X[.7.j.j.7.[.&X&X{.7.j.7.7.7.7.7.7.7.7.7.7.7.7.7.7.7.7.7.7.7.7.7.7.7.7.7.",
"y.7.7.7.7.7.7.7.7.7.7.7.7.7.7.7.7.7.7.7.7.7.7.7.a.>.K K :.a.7.7.a.<.K K >.a.7.7.7.7.7.7.7.7.7.7.7.7.7.7.7.7.7.7.7.7.7.7.7.7.7.7.",
"y.7.7.7.7.7.7.7.7.7.7.7.7.7.7.7.7.7.7.7.7.7.7.7.7.7.7.7.7.7.7.7.7.7.7.7.7.7.7.7.7.7.7.7.7.y.7.7.7.7.7.7.7.7.7.7.7.7.7.7.7.7.7.7."
};
