/* XPM */
static char *su[] = {
/* columns rows colors chars-per-pixel */
"64 64 223 2 ",
"   c #1F7F5A",
".  c #227D72",
"X  c #6F586F",
"o  c #6E637E",
"O  c #BC150A",
"+  c #A31C17",
"@  c #B81B14",
"#  c #AC0E05",
"$  c #942B2D",
"%  c #BC3838",
"&  c #AC3032",
"*  c #CB0B02",
"=  c #D40901",
"-  c #DB1505",
";  c #DD1D13",
":  c #C1180E",
">  c #ED0200",
",  c #E40E00",
"<  c #EB0A00",
"1  c #F20200",
"2  c #FC0000",
"3  c #F10900",
"4  c #E51303",
"5  c #C23535",
"6  c #853C47",
"7  c #943E49",
"8  c #874653",
"9  c #8D4552",
"0  c #A94C56",
"q  c #B3474E",
"w  c #8A627B",
"e  c #985A6B",
"r  c #13931C",
"t  c #139409",
"y  c #0DA400",
"u  c #0DAD00",
"i  c #12AA02",
"p  c #13A405",
"a  c #06B503",
"s  c #0BB401",
"d  c #0CBA03",
"f  c #0CB70A",
"g  c #11BB01",
"h  c #11B507",
"j  c #11A71B",
"k  c #11B415",
"l  c #149B2B",
"z  c #159326",
"x  c #189133",
"c  c #17B02E",
"v  c #1E8B48",
"b  c #1E954A",
"n  c #1E8E50",
"m  c #1E9151",
"M  c #218C4C",
"N  c #218E52",
"B  c #209151",
"V  c #16B649",
"C  c #18B751",
"Z  c #239061",
"A  c #1CB66B",
"S  c #1AB667",
"D  c #1FB17D",
"F  c #21AD67",
"G  c #72915A",
"H  c #588F7F",
"J  c #669978",
"K  c #6C996E",
"L  c #BBAE11",
"P  c #B5AC15",
"I  c #BFBB1B",
"U  c #9DA63B",
"Y  c #A5A628",
"T  c #AEB02E",
"R  c #D1BD08",
"E  c #DBC80B",
"W  c #DACC15",
"Q  c #DBD01A",
"!  c #DDD00F",
"~  c #EBCD00",
"^  c #E4CD04",
"/  c #ECD201",
"(  c #E8D508",
")  c #F5D500",
"_  c #F8D600",
"`  c #F4D901",
"'  c #F8DB00",
"]  c #E4D518",
"[  c #D4CE29",
"{  c #C8CC36",
"}  c #CCCE2C",
"|  c #839A4D",
" . c #879946",
".. c #829C52",
"X. c #8AA44E",
"o. c #96A746",
"O. c #8AA450",
"+. c #84AC6F",
"@. c #A3B244",
"#. c #BCCC48",
"$. c #B7CD58",
"%. c #B6D15D",
"&. c #9CC678",
"*. c #9DC16E",
"=. c #ABCB63",
"-. c #C1CC43",
";. c #04199C",
":. c #051D89",
">. c #08289A",
",. c #0D349A",
"<. c #031EAD",
"1. c #051CA4",
"2. c #051DB3",
"3. c #0726A7",
"4. c #0525B3",
"5. c #0729B5",
"6. c #0C38BC",
"7. c #103FB4",
"8. c #14459D",
"9. c #1A509A",
"0. c #1447A7",
"q. c #1551B2",
"w. c #1D62B2",
"e. c #576F92",
"r. c #747393",
"t. c #507DA4",
"y. c #767EA1",
"u. c #0F44C0",
"i. c #1146C1",
"p. c #1E68CF",
"a. c #2279D7",
"s. c #2575CD",
"d. c #837595",
"f. c #2A8E93",
"g. c #2B9397",
"h. c #29928B",
"j. c #24B68B",
"k. c #27B698",
"l. c #2E96AC",
"z. c #2F98B1",
"x. c #3499B6",
"c. c #2E8CA8",
"v. c #2AB7A8",
"b. c #31B6BD",
"n. c #33ADBC",
"m. c #1FB68B",
"M. c #519797",
"N. c #57A09E",
"B. c #418DBB",
"V. c #4A96B3",
"C. c #718AB2",
"Z. c #55A1A2",
"A. c #49A5BC",
"S. c #69B5AA",
"D. c #71AE90",
"F. c #72C6BC",
"G. c #2F8CCC",
"H. c #2F86C6",
"J. c #318ECD",
"K. c #3698C9",
"L. c #3A9ED1",
"P. c #349AD7",
"I. c #2A8BD8",
"U. c #35A5C6",
"Y. c #2EBBC6",
"T. c #30BAC5",
"R. c #30BAC8",
"E. c #37A4D9",
"W. c #38A5D9",
"Q. c #35BCD6",
"!. c #2C92E4",
"~. c #2F99E7",
"^. c #1EB1FF",
"/. c #3CACE5",
"(. c #37AAEA",
"). c #3CB3EC",
"_. c #39B9E4",
"`. c #37ACF3",
"'. c #24BAFF",
"]. c #2EBCFF",
"[. c #2EB2F9",
"{. c #3DB4F3",
"}. c #33B4FE",
"|. c #3DB5FE",
" X c #35BDFF",
".X c #3FBFFE",
"XX c #3AB5F3",
"oX c #2BA7F2",
"OX c #549ACB",
"+X c #4EACD1",
"@X c #64BEC3",
"#X c #54ACE3",
"$X c #46B8EA",
"%X c #42BCF6",
"&X c #41BFFC",
"*X c #45B8F6",
"=X c #4AADE4",
"-X c #35C4FF",
";X c #3DC1FF",
":X c #35CBFF",
">X c #3DCAFF",
",X c #2ED6FF",
"<X c #32D4FF",
"1X c #3AD3FF",
"2X c #30DAFF",
"3X c #2DC2F4",
"4X c #5BC3DE",
"5X c #68C4C8",
"6X c #63C5D2",
"7X c #54C2E7",
"8X c #42C2FE",
"9X c #48C3FB",
"0X c #43CAFF",
"qX c #4DC8FF",
"wX c #49C0F3",
"eX c #47D1FF",
"rX c #48D1FF",
"tX c #4BD9FF",
"yX c #4BC0ED",
"uX c #84C59D",
"iX c #8BC897",
"pX c #92C688",
"aX c #84C6A1",
/* pixels */
"&X.X.X.X.X.X.X.X.X.X.X.X.X.X.X.X.X.X.X.X.X.X.X.X.X.X.X.X.X.X.X.X.X.X.X.X.X.X.X.X.X.X.X.X.X.X.X.X.X.X.X.X.X.X.X.X.X.X.X.X.X.X.X.X",
"&X.X.X.X.X.X.X.X.X.X.X.X.X.X.X.X.X.X.X.X.X.X.X.X.X.X.X.X.X.X.X.X.X.X.X.X.X.X.X.X.X.X.X.X.X.X.X.X.X.X.X.X.X.X.X.X.X.X.X.X.X.X.X.X",
"&X.X.X.X.X.X.X.X.X.X.X.X.X.X.X.X.X.X.X.X.X.X.X.X.X.X.X.X.X.X.X.X.X.X.X.X.X.X.X.X.X.X.X.X.X.X.X.X.X.X.X.X.X.X.X.X.X.X.X.X.X.X.X.X",
"&X.X.X.X.X.X.X.X.X.X.X.X.X.X.X.X.X.X.X.X.X.X.X.X.X.X.X.X.X.X.X.X.X.X.X.X.X.X.X.X.X.X.X.X.X.X.X.X.X.X.X.X.X.X.X.X.X.X.X.X.X.X.X.X",
"&X.X.X.X.X.X.X.X.X.X.X.X.X.X.X.X.X.X.X.X.X.X.X.X.X.X.X.X.X.X.X.X.X.X.X.X.X.X.X.X.X.X.X.X.X.X.X.X.X.X.X.X.X.X.X.X.X.X.X.X.X.X.X.X",
"&X.X.X.X.X.X.X.X.X.X.X.X.X.X.X.X.X.X.X.X.X.X.X.X.X.X.X.X.X.X.X.X.X.X.X.X.X.X.X.X.X.X.X.X.X.X.X.X.X.X.X.X.X.X.X.X.X.X.X.X.X.X.X.X",
"&X.X.X.X.X.X.X.X.X.X.X.X.X.X.X.X.X.X.X.X.X.X.X.X.X.X.X.X.X.X.X.X.X.X.X.X.X.X.X.X.X.X.X.X.X.X.X.X.X.X.X.X.X.X.X.X.X.X.X.X.X.X.X.X",
"&X.X.X.X.X.X.X.X.X.X.X.X.X.X.X.X.X.X.X.X.X.X.X.X.X.X.X.X.X.X.X.X.X.X.X.X.X.X.X.X.X.X.X.X.X.X.X.X.X.X.X.X.X.X.X.X.X.X.X.X.X.X.X.X",
"&X.X.X.X.X.X.X.X.X.X.X.X.X.X.X.X.X.X.X.X.X.X.X.X.X.X.X.X.X.X.X.X.X.X.X.X.X.X.X.X.X.X.X.X.X.X.X.X.X.X.X.X.X.X.X.X.X.X.X.X.X.X.X.X",
"&X.X.X.X.X.X.X.X.X.X.X.X.X.X.X.X.X.X.X.X.X.X.X.X.X.X.X.X.X.X.X.X.X.X.X.X.X.X.X.X.X.X.X.X.X.X.X.X.X.X.X.X.X.X.X.X.X.X.X.X.X.X.X.X",
"&X.X.X.X.X.X.X.X.X.X.X.X.X.X.X.X.X.X.X.X.X.X.X.X.X.X.X.X.X.X.X.X.X.X.X.X.X.X.X.X.X.X.X.X.X.X.X.X.X.X.X.X.X.X.X.X.X.X.X.X.X.X.X.X",
"&X.X.X.X.X.X.X.X.X.X.X.X.X.X.X.X.X.X.X.X.X.X.X.X.X.X.X.X.X.X.X.X.X.X.X.X.X.X.X.X.X.X.X.X.X.X.X.X.X.X.X.X.X.X.X.X.X.X.X.X.X.X.X.X",
"&X.X.X.X.X.X.X.X.X.X.X.X.X.X.X.X.X.X.X.X.X.X.X.X.X.X.X.X.X.X.X.X.X.X.X.X.X.X.X.X.X.X.X.X.X.X.X.X.X.X.X.X.X.X.X.X.X.X.X.X.X.X.X.X",
"&X.X.X.X.X.X.X.X.X.X.X.X.X.X.X.X.X.X.X.X.X.X.X.X.X.X.X.X.X.X.X.X.X.X.X.X.X.X.X.X.X.X.X.X.X.X.X.X.X.X.X.X.X.X.X.X.X.X.X.X.X.X.X.X",
"&X.X.X.X.X.X.X.X.X.X.X.X.X.X.X.X.X.X.X.X.X.X.X.X.X.X.X.X.X.X.X.X.X.X.X.X.X.X.X.X.X.X.X.X.X.X.X.X.X.X.X.X.X.X.X.X.X.X.X.X.X.X.X.X",
"&X.X.X.X.X.X.X.X.X.X.X.X.X.X.X.X.X.X.X.X.X.X.X.X.X.X.X.X.X.X.X.X.X.X.X.X.X.X.X.X.X.X.X.X.X.X.X.X.X.X.X.X.X.X.X.X.X.X.X.X.X.X.X.X",
"&X.X.X.X.X.X.X.X.X.X.X;X.X.X.X.X.X8X8X.X.X.X.X.X&X&X.X.X&X&X&X&X&X8X8X8X8X;X.X;X;X;X;X;X;X.X.X&X8X8X8X8X8X8X8X8X8X8X&X.X.X.X.X.X",
"&X.X.X.X.X.X&X&X8X.X%X%X%X%X&X.X&X.X}.;X&X.X&X.X X X.X.X-X-X-X-X X X X X X&X;X.X|.|.*X|.|..X8X.X}.}.}.}.}.}.}.}.}.}..X&X.X.X.X.X",
"&X.X.X.X.X8Xw.,.8.8.8.8.8.8.q.{..XH  .+X;X&X.X7X&.uX.X&XX 6 6 6 6 6 6 $ o >X).  v v n N v g.;XM.| ..G ..| ....| | X.6X.X&X.X.X.X",
"&X.X.X.X.X&X0.4.4.<.<.<.<.<.4.{. Xo._ N.;X&X X5X) { .X8X5 1 > > > > < 1 q >X/.r g s s s s Z  XK ` / ) _ ` ) ) ) ` ) iX X&X.X.X.X",
"&X.X.X.X.X8Xq.4.0.a.a.a.a.a.I..X XO.~ Z.;X&X X5X/ #..X&X% , X e.e.e.9 < 0 >X/.z f j.k.k.j.n. XJ / } aXuXuXiXiXD.T / uX X&X.X.X.X",
"&X.X.X.X.X8Xq.<.w.tXrXrXrXrXrX8X}.X.~ Z.;X&X X5X~ -..X&X5 , #X<X;X,XC.1 0 >X/.r k ;XqX8X8X8X XJ ) $. X X X].-X^.G _ uX X&X.X.X.X",
"&X.X.X.X.X8Xq.4.q.!.!.!.!.!.!.%X XX.~ N.;X%X.X5X/ -..X&X5 , OX;X%X;XC.> 0 >X/.z k h.g.g.f.U. XJ ) #.8X%X@XF.F.@X@./ aX X&X.X.X.X",
"&X.X.X.X.X8X0.2.4.<.<.<.4.4.>.E. XX.~ Z.-X;X-X6X/ #..X;X% , #X:X.X:XC.> 0 >X/.z d u y i y j..XJ ) #.;X`.Y ) / ) ` ) iX X&X.X.X.X",
"&X.X.X.X.X8Xw.q.u.i.u.i.7.5.>.E. XO./ J A.V.x.D./ #..X;X% , C.$X#X%Xd.> 0 >X/.r f c V V c b..XJ ) -.7X=XT ( T U o.U S.;X&X.X.X.X",
"&X.X.X.X.X.X8X;X8X8X.X0XJ.3.>.W. XX.` W E E E E / { .X;X% , ; ; ; ; 4 3 q >X/.r k 3X8X;X8X8X XJ / E Q Q ( Q $X}.}.}..X8X.X.X.X.X",
"&X.X.X.X.X.X.X.X.X.X.X8XJ.3.>.E.;XG P W ^ ^ ^ ! Q $..X;X% , @ + + + + # 8 >X/.r k z.L.K.K./. XJ / W } } ( Q 4X8X8X8X8X.X.X.X.X.X",
"&X.X.X.X.X8Xa.6.u.u.u.u.6.6.>.E.8X).oX=./ ( / =.&XwX.X;X5 , OX[.(.(.(.(.).8X/.z f j j j j v..XJ / #.8X7X} ^ } { V.;X&X.X.X.X.X.X",
"&X.X&X.X.X8Xq.;.3.;.;.;.;.3.:.P.8X8X;X*.E R R *. X.X.X;X& * #X>X8X8X8X8X8X8X/.r i p i p y k..XJ ) $..X%X} ^ ^ ^ M.;X&X.X.X.X.X.X",
"&X.X.X.X.X;XP.H.G.G.G.J.J.J.J.{.8X;X8X+XA.+X+X=X8X.X8X8XOXB.%X8X8X8X8X8X8X.X.XU.x.x.U.U.x.W.;XyX5X4X8X8X6X6X6X6X$X;X.X.X.X.X.X.X",
"&X.X.X.X.X&X>X1X>X0X0X8X0X1X1X8X.X{.|.|.|.|.|..X.X8X}.}. X].}.}.}.}.}.}.}.&X8X8X8X8X8X8X8X8X.X.X}.|.|.|.|.}.}.}..X;X.X.X.X.X.X.X",
"&X.X.X.X&X;Xt.w OX;X%X;XW.w r./.8X. v n N N v g.8X).G  .| | | | ....|  .D.;X{.9.0.8.8.0.8.I.0XK.v m N n m N B v U.8X.X.X.X.X.X.X",
"&X.X.X.X&X-X6 2 y.,X;X>XB.= * L.8Xb d g s d d S 8XE.L ' ) ' _ _ ' ' ` ` $.;X/.:.2.4.5.4.1.a.rXl.y d s s s g d s Y.8X.X.X.X.X.X.X",
"&X.X.X.X&X-X8 < 7 X t.>XB.* O W.8Xm h b j.C s A 8XE.P ( &.iXpXpXpXpXo.~ =.;X{.w.9.3.5.p.p.~.0Xz.p c m.j.j.D j f Y.8X.X.X.X.X.X.X",
"&X.X.X.X&X-X8 < , 1 e 2XK.= : L.8XB i f.qXv.s A 8XE.L ] %X X X]. X'.H ) =..X&X0XXX,.4.`.rX8X8Xz.y C &X&X8X`.l d R.8X.X.X.X.X.X.X",
"&X.X.X&X&X-X8 < - , 0 #Xy.- O L.8XB h Z l.F s A 8XE.L ] 7X.X+X6X6X4X+./ =..X&X;X).,.4.~.8X.X8Xz.y C .X.X;X/.l a R.8X.X&X.X.X.X.X",
"&X.X.X.X&X-X8 < , 4 , - - 4 O L.8XN h f s f s A 8XE.L ] 7XoXY ( ( ( ( ` %..X&X;X).,.5.(.8X.X8Xz.p C .X.X8X/.l a T.8X.X.X.X.X.X.X",
"&X.X.X.X&X-X8 3 @ + @ , - 4 O L.8XN h l x j a A 8XE.L ] 7X/.T ` R Y Y Y +..X&X8X).,.5.(.8X.X8Xz.p C .X.X8X/.l a T.8X.X.X.X.X.X.X",
"&X.X.X.X&X-X8 1 r.3XC.< , 4 O L.8XB s n.*Xk.s A 8XE.P / [ } Q / S.oX(.`.XX;X.X8X{.,.4.(.8X.X8Xz.y C ;X8X8X).l f Y.8X.X.X.X.X.X.X",
"&X.X.X.X&X-X8 1 y.<XC.= * , O L.8XN s T.8Xk.s A 8XE.P / Q Q Q / F.-X8X8X8X.X;X).L.,.5.(.8X.X8Xz.y V `./.{.P.l f Y.8X.X.X.X.X.X.X",
".X.X.X.X&X-X8 1 y.:X=XB.t.- : L.8XB s b.8Xk.s A 8XE.P ] 6XwX#./ { -.D. X&X8X|.0.>.5.6.u.q.I.0Xz.p k z z z z k f Y.8X.X.X.X.X.X.X",
".X.X.X.X&X-X8 1 y.:X&X1X#X= # L.8XM y b.8Xk.a S 8XE.L ] yX X$./ ^ _ .. X&X8X{.3.1.3.3.1.;.s.rXl.t u u u i s u y T.8X.X.X.X.X.X.X",
".X;X.X.X.X;XOXC.#X;X&X&X*XB.t.)..Xc.f._.8X_.b.Q.;X%X5X5XwX.X6XF.5XF.+X.X&X;X.XG.G.G.G.J.G.(.8XE.f.f.f.f.f.f.g.f.W.8X.X.X.X.X.X.X",
"&X.X.X.X.X.X;X:X;X&X8X&X;X>X>X;X.X8X8X8X.X&X8X8X&X8X X X.X.X.X X X X;X&X.X.X8X0X0X0X0X0X0X8X.X8X8X8X8X8X8X8X8X8X8X.X.X.X.X.X.X.X",
"&X.X.X.X.X.X&X&X&X.X.X.X.X&X.X.X.X.X.X.X.X.X.X.X&X&X&X&X.X.X&X&X&X&X&X.X.X.X.X.X.X.X.X.X.X.X.X.X.X.X.X.X.X.X.X.X.X.X.X.X.X.X.X.X",
"&X.X.X.X.X.X.X.X.X.X.X.X.X.X.X.X.X.X.X.X.X.X.X.X&X&X.X.X.X.X.X.X.X.X.X.X.X.X.X.X.X.X.X.X.X.X.X.X.X.X.X.X.X.X.X.X.X.X.X.X.X.X.X.X",
"&X.X.X.X.X.X.X.X.X.X.X.X.X.X.X.X.X.X.X.X.X.X.X.X.X.X.X.X.X.X.X.X.X.X.X.X.X.X.X.X.X.X.X.X.X.X.X.X.X.X.X.X.X.X.X.X.X.X.X.X.X.X.X.X",
"&X.X.X.X.X.X.X.X.X.X.X.X.X.X.X.X.X.X.X.X.X.X.X.X.X.X.X.X.X.X.X.X.X.X.X.X.X.X.X.X.X.X.X.X.X.X.X.X.X.X.X.X.X.X.X.X.X.X.X.X.X.X.X.X",
"&X.X.X.X.X.X.X.X.X.X.X.X.X.X.X.X.X.X.X.X.X.X.X.X.X.X.X.X.X.X.X.X.X.X.X.X.X.X.X.X.X.X.X.X.X.X.X.X.X.X.X.X.X.X.X.X.X.X.X.X.X.X.X.X",
"&X.X.X.X.X.X.X.X.X.X.X.X.X.X.X.X.X.X.X.X.X.X.X.X.X.X.X.X.X.X.X.X.X.X.X.X.X.X.X.X.X.X.X.X.X.X.X.X.X.X.X.X.X.X.X.X.X.X.X.X.X.X.X.X",
"&X.X.X.X.X.X.X.X.X.X.X.X.X.X.X.X.X.X.X.X.X.X.X.X.X.X.X.X.X.X.X.X.X.X.X.X.X.X.X.X.X.X.X.X.X.X.X.X.X.X.X.X.X.X.X.X.X.X.X.X.X.X.X.X",
"&X.X.X.X.X.X.X.X.X.X.X.X.X.X.X.X.X.X.X.X.X.X.X.X.X.X.X.X.X.X.X.X.X.X.X.X.X.X.X.X.X.X.X.X.X.X.X.X.X.X.X.X.X.X.X.X.X.X.X.X.X.X.X.X",
"&X.X.X.X.X.X.X.X.X.X.X.X.X.X.X.X.X.X.X.X.X.X.X.X.X.X.X.X.X.X.X.X.X.X.X.X.X.X.X.X.X.X.X.X.X.X.X.X.X.X.X.X.X.X.X.X.X.X.X.X.X.X.X.X",
"&X.X.X.X.X.X.X.X.X.X.X.X.X.X.X.X.X.X.X.X.X.X.X.X.X.X.X.X.X.X.X.X.X.X.X.X.X.X.X.X.X.X.X.X.X.X.X.X.X.X.X.X.X.X.X.X.X.X.X.X.X.X.X.X",
"&X.X.X.X.X.X.X.X.X.X.X.X.X.X.X.X.X.X.X.X.X.X.X.X.X.X.X.X.X.X.X.X.X.X.X.X.X.X.X.X.X.X.X.X.X.X.X.X.X.X.X.X.X.X.X.X.X.X.X.X.X.X.X.X",
"&X.X.X.X.X.X.X.X.X.X.X.X.X.X.X.X.X.X.X.X.X.X.X.X.X.X.X.X.X.X.X.X.X.X.X.X.X.X.X.X.X.X.X.X.X.X.X.X.X.X.X.X.X.X.X.X.X.X.X.X.X.X.X.X",
"&X.X.X.X.X.X.X.X.X.X.X.X.X.X.X.X.X.X.X.X.X.X.X.X.X.X.X.X.X.X.X.X.X.X.X.X.X.X.X.X.X.X.X.X.X.X.X.X.X.X.X.X.X.X.X.X.X.X.X.X.X.X.X.X",
"&X.X.X.X.X.X.X.X.X.X.X.X.X.X.X.X.X.X.X.X.X.X.X.X.X.X.X.X.X.X.X.X.X.X.X.X.X.X.X.X.X.X.X.X.X.X.X.X.X.X.X.X.X.X.X.X.X.X.X.X.X.X.X.X",
"&X.X.X.X.X.X.X.X.X.X.X.X.X.X.X.X.X.X.X.X.X.X.X.X.X.X.X.X.X.X.X.X.X.X.X.X.X.X.X.X.X.X.X.X.X.X.X.X.X.X.X.X.X.X.X.X.X.X.X.X.X.X.X.X",
"&X.X.X.X.X.X.X.X.X.X.X.X.X.X.X.X.X.X.X.X.X.X.X.X.X.X.X.X.X.X.X.X.X.X.X.X.X.X.X.X.X.X.X.X.X.X.X.X.X.X.X.X.X.X.X.X.X.X.X.X.X.X.X.X",
"&X.X.X.X.X.X.X.X.X.X.X.X.X.X.X.X.X.X.X.X.X.X.X.X.X.X.X.X.X.X.X.X.X.X.X.X.X.X.X.X.X.X.X.X.X.X.X.X.X.X.X.X.X.X.X.X.X.X.X.X.X.X.X.X",
"&X.X.X.X.X.X.X.X.X.X.X.X.X.X.X.X.X.X.X.X.X.X.X.X.X.X.X.X.X.X.X.X.X.X.X.X.X.X.X.X.X.X.X.X.X.X.X.X.X.X.X.X.X.X.X.X.X.X.X.X.X.X.X.X",
"&X.X.X.X.X.X.X.X.X.X.X.X.X.X.X.X.X.X.X.X.X.X.X.X.X.X.X.X.X.X.X.X.X.X.X.X.X.X.X.X.X.X.X.X.X.X.X.X.X.X.X.X.X.X.X.X.X.X.X.X.X.X.X.X",
"&X.X&X.X.X.X.X.X.X.X.X.X&X.X.X.X.X.X.X.X.X.X.X.X.X.X.X.X.X.X.X.X.X&X&X&X.X.X.X.X.X.X.X.X.X.X.X.X.X.X.X.X.X.X.X.X.X.X.X.X.X.X.X.X"
};
