/* XPM */
static char *w[] = {
/* columns rows colors chars-per-pixel */
"64 64 173 2 ",
"   c #0C140E",
".  c #061611",
"X  c #0B1613",
"o  c #051816",
"O  c #0D1A14",
"+  c #0D1B18",
"@  c #131C16",
"#  c #1B1D16",
"$  c #141E19",
"%  c #1D1F18",
"&  c #231E15",
"*  c #201F18",
"=  c #16201A",
"-  c #1E221D",
";  c #242017",
":  c #282013",
">  c #252119",
",  c #292319",
"<  c #322416",
"1  c #3A2817",
"2  c #322519",
"3  c #34281B",
"4  c #3D2A1B",
"5  c #1F2420",
"6  c #222621",
"7  c #2A2721",
"8  c #262925",
"9  c #292B25",
"0  c #2E2D29",
"q  c #362E26",
"w  c #392E26",
"e  c #2C302C",
"r  c #32322C",
"t  c #3B3329",
"y  c #333430",
"u  c #3B3733",
"i  c #3D3A36",
"p  c #412D1C",
"a  c #482C1C",
"s  c #57321F",
"d  c #43372D",
"f  c #48372C",
"g  c #4F392D",
"h  c #403C37",
"j  c #474138",
"k  c #4A443E",
"l  c #554339",
"z  c #954D28",
"x  c #96512F",
"c  c #9E512A",
"v  c #A14D20",
"b  c #A55225",
"n  c #AA5226",
"m  c #A4532B",
"M  c #AE5429",
"N  c #A9582F",
"B  c #BC5725",
"V  c #B35729",
"C  c #B3582C",
"Z  c #BC5A2B",
"A  c #BF6034",
"S  c #B5643D",
"D  c #D25619",
"F  c #CD5B25",
"G  c #C35D2B",
"H  c #C95E2B",
"J  c #D35D26",
"K  c #DA5F25",
"L  c #D45F29",
"P  c #CC622E",
"I  c #DD6025",
"U  c #D5602A",
"Y  c #DA622A",
"T  c #C36131",
"R  c #CE6230",
"E  c #C66639",
"W  c #CE6A3C",
"Q  c #D36632",
"!  c #D46936",
"~  c #D96934",
"^  c #D56D3D",
"/  c #D96B3A",
"(  c #D5703F",
")  c #E3652C",
"_  c #B26644",
"`  c #C06B44",
"'  c #D46E40",
"]  c #C2714C",
"[  c #D67244",
"{  c #DB7344",
"}  c #D5754A",
"|  c #D8774C",
" . c #D5784F",
".. c #D9794F",
"X. c #D77B52",
"o. c #DD7B50",
"O. c #E17C51",
"+. c #DA8762",
"@. c #CF9F8F",
"#. c #CCA095",
"$. c #C5A39D",
"%. c #D8A497",
"&. c #DFA997",
"*. c #D3A89B",
"=. c #DDAC9F",
"-. c #E7A895",
";. c #EAA891",
":. c #EFAF9D",
">. c #EFB09E",
",. c #F0B19F",
"<. c #C7A8A3",
"1. c #CBA9A2",
"2. c #D3AFA7",
"3. c #D2AFAB",
"4. c #DDB1A7",
"5. c #D7B3AD",
"6. c #D9B1AB",
"7. c #DFB6B1",
"8. c #E0B1A5",
"9. c #EEB1A1",
"0. c #F1B3A3",
"q. c #F1B6A8",
"w. c #F3BAAC",
"e. c #E0B7B2",
"r. c #E1B9B5",
"t. c #E3BAB4",
"y. c #EBBEB7",
"u. c #EFBEB4",
"i. c #E4BCB8",
"p. c #EBBFBA",
"a. c #EABEB8",
"s. c #F4BEB2",
"d. c #EDC1BC",
"f. c #F5C1B6",
"g. c #FAC3B6",
"h. c #F2C6BE",
"j. c #F7C6BD",
"k. c #F7C6BD",
"l. c #F7C5BC",
"z. c #F5C5BC",
"x. c #F8C5BB",
"c. c #ECC5C0",
"v. c #F7C7C1",
"b. c #F5C6C1",
"n. c #F8C7C1",
"m. c #F9C7C1",
"M. c #F8C6C1",
"N. c #F9C7C2",
"B. c #F9C7C1",
"V. c #F6CAC5",
"C. c #F8C8C2",
"Z. c #F8C8C3",
"A. c #F9C8C3",
"S. c #F9C8C2",
"D. c #F9C8C2",
"F. c #F9CBC6",
"G. c #FACBC6",
"H. c #FACAC4",
"J. c #FDCAC5",
"K. c #FFCCC7",
"L. c #FECCC7",
"P. c #FACAC4",
"I. c #FACDC9",
"U. c #FBCEC8",
"Y. c #FBCDCA",
"T. c #FBCCCA",
"R. c #FBCECA",
"E. c #FFCFCA",
"W. c #FBCDC9",
"Q. c #FED0CD",
"!. c #FCD1CE",
"~. c #FFD1CC",
"^. c #FFD3D0",
/* pixels */
"U U J ..G.G.M.G.G.G.G.G.G.G.M.M.M.G.G.G.G.G.G.G.G.G.M.M.M.G.G.G.G.M.G.a.9 # $ % Z Y J U w.Y.M.G.G.G.M.M.M.G.G.G.G.G.G.G...J U U ",
"U U J ..G.M.M.M.M.M.M.M.M.M.M.M.M.M.M.M.M.M.M.M.M.M.M.M.M.M.M.M.M.v.G.u.9 # $ % Z Y U U w.G.M.M.M.M.M.M.M.M.M.M.M.M.M.G.| J U J ",
"J J D | !.Y.Y.Y.Y.Y.Y.Y.Y.Y.Y.Y.Y.Y.Y.Y.Y.Y.Y.Y.Y.Y.Y.Y.Y.Y.Y.Y.Y.Y.!.c.9 # $ % B K J J s.!.Y.Y.Y.Y.Y.Y.Y.Y.Y.Y.Y.Y.Y.!.O.K Y Y ",
"o.o.| +.>.:.>.>.>.>.>.>.:.:.:.:.,.,.,.,.>.>.>.>.:.:.:.:.,.,.,.,.>.:.,.=.9 # $ = ] o...X.;.0.:.,.>.>.:.:.,.,.,.,.>.:.:.9._ v b b ",
"G.G.!.>.F J J J J J J J J J J J J J J J J J J J J J J J J J J J J J J G , $ $ = r.Y.G.G.^ J J J J J J J J J J J J J J U 4 X # # ",
"G.M.Y.>.J U U U U U U U U U U U U U U U U U U U U U U U U U U U U U Y H , $ # = 7.G.M.h.^ J U U U U U U U U U U U U U U p + % = ",
"G.M.Y.>.J U U U U U U U U U U U U U U U U U U U U U U U U U U U U U Y H > $ # = 7.G.G.h.^ J U U U U U U U U U U U U U U p + $ $ ",
"G.M.Y.>.J U U U U U U U U U U U U U U U U U U U U U U U U U U U U U Y H , $ # = 7.G.G.h.^ J U U U U U U U U U U U U U U 4 + $ = ",
"G.M.Y.>.J U U U U U U U U U U U U U U U U U U U U U U U U U U U U U Y H > $ # = e.G.G.x.^ J U U U U U U U U U U U U J Y p O $ = ",
"G.M.Y.>.J U U U U U U U U U U U U U U U U U U U U U U U U U U U U U Y H > $ # = e.G.G.h.^ J U U U U U U U U U U U U J Y p O $ = ",
"G.M.Y.>.J U U U U U U U U U U U U U U U U U U U U U U U U U U U U U Y H > $ # = e.G.G.h.^ J U U U U U U U U U U U U J Y p + $ $ ",
"G.M.Y.>.J U U U U U U U U U U U U U U U U U U U U U U U U U U U U U Y H > $ # = e.G.G.h.^ J U U U U U U U U U U U U U Y p + $ $ ",
"G.M.Y.>.J U U U U U U U U U U U U U U U U U U U U U U U U U U U U U Y G , $ # = e.G.G.h.^ J U U U U U U U U U U U U U Y p + $ = ",
"G.M.Y.>.J U U U U U U U U U U U U U U U U U U U U U U U U U U U U U Y G > $ # = e.G.G.h.^ J U J U U U U U U U U U U U Y p + $ $ ",
"G.M.Y.>.J U U U U U U U U U U U U U U U U U U U U U U U U U U U U U Y G , $ # = e.G.G.x.{ I Y Y U U U U U U U U U U U Y p O $ = ",
"G.M.Y.>.J U U U U U U U U U U U U U U U U U U U U U U U U U U U U U Y H > $ # = e.G.M.h.S n M M H U U U U U U U U U U Y p O $ = ",
"G.M.Y.>.J U U U U U U U U U U U U U U U U U U U U U U U U U U U U U Y H > $ # = 7.G.G.h.r X # # C Y U U U U U U U U U Y p + $ $ ",
"G.M.Y.>.J U U U U U U U U U U U U U U U U U U U U U U U U U U U U U Y H > $ # = 7.G.M.h.r O = # C Y J U J J J J U J J U p + = = ",
"G.M.Y.>.J U U U U U U U U U U U U U U U U U U U U U U U U U U U U U Y H > $ # = r.!.Y.V.r # = # Z ) Y Y Y Y Y Y Y Y Y ) 4 o $ + ",
"G.M.Y.>.J U U U U U U U U U U U U U U U U U U U U U U U U U U U U U Y H , $ $ = %.w.0.9.r O $ % z V M M M M M M M M M V s 3 4 4 ",
"G.M.Y.>.J U U U U U U U U U U U U U U U U U U U U U U U U U U U U U Y G , $ $ = Z U J H 2 + $ $ # # # # # # # # # # # # M Y U U ",
"G.M.Y.>.J U U U U U U U U U U U U U U U U U U U U U U U U U U U U U Y G , $ $ = G Y U U 3 $ = = = = = = = = = = = = = $ M Y J J ",
"G.M.Y.>.J U U U U U U U U U U U U U U U U U U U U U U U U U U U U U Y G > $ $ = B K J F , . O O O O O O O O O O O O O   n ) Y Y ",
"G.M.Y.>.J U U U U U U U U U U U U U U U U U U U U U U U U U U U U U Y G , $ $ = ` { { | l i h i h h h h h i i i i h i i x V M V ",
"G.M.Y.>.J U U U U U U U U U U U U U U U U U U U U U U U U U U U U U Y G > $ # = 6.G.M.G.G.G.G.G.G.G.G.G.G.G.G.G.G.G.G.!.k   # # ",
"G.M.Y.>.J U U U U U U U U U U U U U U U U U U U U U U U U U U U U U Y G > $ # = 7.G.v.G.M.M.M.M.M.M.M.M.M.M.M.M.M.M.M.G.k X = = ",
"G.M.Y.>.J U U U U U U U U U U U U U U U U U U U U U U U U U U U U U Y G > $ # = 7.G.v.G.Y.Y.Y.Y.Y.Y.G.Y.Y.Y.Y.Y.Y.Y.G.!.k X = $ ",
"G.M.Y.>.J U U U U U U U U U U U U U U U U U U U U U U U U U U U U U Y G > $ # = 7.G.v.G.w.0.q.q.q.q.q.q.q.q.q.q.q.q.0.w.j X = $ ",
"G.M.Y.>.J U U U U U U U U U U U U U U U U U U U U U U U U U U U U U Y G > $ # = 7.G.G.h.' J U U U U U U U U U U U U U U p + $ = ",
"G.M.Y.>.J U U U U U U U U U U U U U U U U U U U U U U U U U U U U U Y G > $ # = e.G.G.x.^ J U U U U U U U U U U U U U U p O $ = ",
"G.M.Y.>.J U U U U U U U U U U U U U U U U U U U U U U U U U U U U U Y G , $ # = e.G.G.x.^ J U U U U U U U U U U U U U U p + $ = ",
"G.M.Y.>.J U U U U U U U U U U U U U U U U U U U U U U U U U U U U U Y H , $ # = e.G.G.x.^ J U U U U U U U U U U U U U U p + $ = ",
"G.M.Y.>.J U U U U U U U U U U U U U U U U U U U U U U U U U U U U U Y H , $ # 5 e.G.G.h.^ J U U U U U U U U U U U U J Y p O $ = ",
"G.M.Y.,.J U U U U U U U U U U U U U U U U U U U U U U U U U U U U U Y H > $ # 5 r.G.V.h.^ J U U U U U U U U U U U U J Y p O $ = ",
"G.M.Y.>.J U U U U U U U U U U U U U U U U U U U U U U U U U U U U U Y H > $ # 5 r.G.V.h.^ J U U U U U U U U U U U U J Y p O $ = ",
"G.M.Y.>.J U U U U U U U U U U U U U U U U U U U U U U U U U U U U U Y H > $ # 5 r.G.V.h.^ J U U U U U U U U U U U U J Y p O $ = ",
"G.M.Y.>.J U U U U U U U U U U U U U U U U U U U U U U U U U U U U U Y H > $ # = e.G.G.h.^ J U U U U U U U U U U U U U U p O $ = ",
"v.v.Y.:.J U U J U U U U U U U U U U U U U U U U U U U U U U U U J J U G , $ $ 6 e.G.M.h.^ J U U U U U U U U U U U U U U p O $ = ",
"Y.G.^.0.U Y Y Y U U U U U U U U U U U U U U U U U U U U U U U U Y Y Y H & O O % r.!.G.G.' J U U U U U U U U U U U U U U p + $ = ",
"6.6.7.@.V Z C Z U U U U U U U U U U U U U U U U U U U U U U U U Z Z Z C d y r i =.w.w.q.^ J U U U U U U U U U U U U U U p + $ = ",
"% = = = # # # p U J U U U U U U U U U U U U U U U U U U U U Y G , % # 7 r.G.v.h.^ U U U U U U U U U U U U U U U U U U Y p + $ = ",
"$ $ $ $ $ $ + 4 U J U U U U U U U U U U U U U U U U U U U U Y G > $ # 6 r.G.G.x.^ J U J U U U U U U U U U U U U U U J Y p O $ = ",
"O O O O O # . 1 Y Y Y Y Y Y Y Y U U U U U U U U U U U U U U Y G > $ # 6 r.G.G.h.^ J U U U U U U U U U U U U U U U U U Y p + $ = ",
"r r r r r r e g Z Z Z Z Z Z Z G U U U U U U U U U U U U U U Y G > $ # 6 r.G.G.h.^ J U U U U U U U U U U U U U U U U U Y p + $ $ ",
"h.h.h.h.h.d.G.$.# % % % % % # 4 U U U U U U U U U U U U U U Y G > $ # 6 r.G.G.h.^ J U U U U U U U U U U U U U U U U U Y p + $ $ ",
"G.G.G.G.G.M.!.1.# $ $ $ $ $ + 3 U J U U U U U J J J U U J J Y G > $ # 6 r.G.M.h.^ J U U U U U U U U U U U U U U U U U Y p + $ $ ",
"M.M.M.G.G.V.!.<.  O # # # # X < U Y Y Y Y Y Y Y Y Y Y Y Y Y Y H # O O = i.Y.Y.M.^ J U U U U U U U U U U U U U U U U J Y p O $ = ",
"G.M.G.h.w.w.g.#.0 e r r r r e f Z Z Z Z Z Z Z Z Z Z Z Z Z Z G C t e 0 u 8.s.s.w.^ J U U U U U U U U U U U U U U U U J Y p O $ = ",
"G.M.Y.9.U Q U  .v.h.h.h.h.d.G.1.& % % % % % % % % % % % % % # 9 r.v.v.u.^ U Q Q U U U U U U U U U U U U U U U U U U U Y p O $ = ",
"G.M.Y.,.J U J | G.G.G.G.G.M.Y.2.$ $ $ $ $ $ $ $ $ $ $ $ $ $ O 8 a.G.G.g.! J J J U U U U U U U U U U U U U U U U U U U U p O $ = ",
"G.M.Y.>.J U J | Y.G.G.G.G.V.!.3.# # # # # # O # # # # # $ $ # 8 i.G.G.f.^ J U U U U U U U U U U U U U U U U U U U U U U p + $ = ",
"G.M.Y.,.J U J [ s.s.s.s.s.s.g.*.0 0 0 0 0 0 0 0 0 0 0 9 $ $ # 8 a.G.G.f.^ J U U U U U U U U U U U U U U U U U U U U U U p + $ = ",
"G.M.Y.>.J U U U Q Q Q Q Q Q U | d.d.d.d.d.d.d.d.d.d.h.5.= $ # 8 a.G.G.f.^ J U U U U U U U U U U U U U U U U U U U U U Y p + $ $ ",
"G.M.Y.>.J U U U J J J J J U J [ G.G.G.G.G.G.G.G.G.G.Y.r.6 $ # 8 a.G.G.f.! J U U U U U U U U U U U U U U U U U U U U U U p + $ $ ",
"G.M.Y.>.J U U U U U U U U U J [ G.G.G.G.G.G.G.V.G.V.Y.r.6 $ # 8 a.G.G.f.! J U U U U U U U U U U U U U U U U U U Y Y Y Y p + $ $ ",
"G.M.Y.>.J U U U U U U U U U J ( s.s.s.s.s.s.s.s.s.s.g.4.> $ # 8 a.G.G.f.! J U U U U U U U U U U U U U U U U U U G Z Z G 4 O $ $ ",
"G.M.Y.9.J U U U U U U U U U U U Q Q Q Q Q Q Q Q Q Q ~ A > $ # 8 a.G.G.f.^ J U U U U U U U U U U U U U U U U U U a # > > % $ $ $ ",
"M.M.Y.>.J U U J U U U U U U J J J J J J J J J J J J K G > $ # 9 u.G.G.f.^ J U J J J U U U U J J U U U U U U J U 4 + $ $ $ $ $ = ",
"G.G.Y.0.J Y Y Y Y Y Y Y Y Y Y Y Y Y Y Y Y Y Y Y Y Y Y G % $ O 8 a.G.G.h./ K Y Y Y Y Y Y Y Y Y Y Y Y Y Y Y Y Y Y 4 + % $ $ $ $ $ ",
"s.s.h.-.Z G G G G G G G G G G G G G G G G G G G G G G V < , & w a.G.G.h.E G G G G G G G G G G G G G G G G G G G 4 + $ # > , , , ",
"Q Q ~ N & > > > > > & & & > > > > > & & & > > > > > % 2 Z P G E f.G.G.a.q # > > > > & & & > > > > > & & & ; ; > # $ $ # c P G H ",
"J J Y b O $ $ $ $ $ $ $ $ $ $ $ $ $ $ $ $ $ $ $ $ $ + > H Y J ! f.G.G.a.8 O $ $ $ $ $ $ $ $ $ $ $ $ $ $ $ $ $ $ $ $ $ # M ) U U ",
"U U Y n # $ $ $ $ $ $ $ $ $ $ $ $ $ $ $ $ $ $ $ $ $ $ , H Y J ! f.G.G.a.9 # $ $ $ $ $ $ $ $ $ $ $ $ $ $ $ $ $ $ $ $ $ # n Y J U ",
"P P Q m # = $ $ $ $ $ $ $ $ $ $ $ $ $ $ $ $ $ $ $ $ + , T Q P W f.V.G.d.9 O = $ $ $ $ $ $ $ $ $ $ $ $ $ $ $ $ $ $ $ = $ m Q R R "
};
